<?xml version="1.0" encoding="utf-8"?>
<!-- Generator: Adobe Illustrator 22.1.0, SVG Export Plug-In . SVG Version: 6.00 Build 0)  -->
<svg version="1.1" id="Layer_1" xmlns="http://www.w3.org/2000/svg" xmlns:xlink="http://www.w3.org/1999/xlink" x="0px" y="0px"
	 viewBox="0 0 352.2 300.8" style="enable-background:new 0 0 352.2 300.8;" xml:space="preserve">
<style type="text/css">
	.st0{fill:url(#SVGID_1_);}
	.st1{fill:url(#SVGID_2_);}
	.st2{fill:#FF681C;}
	.st3{fill:#FCBDBA;}
	.st4{fill:#473F47;}
	.st5{fill:#358BF9;}
	.st6{fill:url(#SVGID_3_);}
	.st7{fill:url(#SVGID_4_);}
	.st8{fill:url(#SVGID_5_);}
	.st9{fill:url(#SVGID_6_);}
	.st10{fill:url(#SVGID_7_);}
	.st11{fill:url(#SVGID_8_);}
	.st12{fill:url(#SVGID_9_);}
	.st13{fill:#FFFFFF;}
	.st14{fill:#FDB9A9;}
	.st15{fill:url(#SVGID_10_);}
	.st16{fill:#DE9F93;}
	.st17{fill:url(#SVGID_11_);}
	.st18{fill:url(#SVGID_12_);}
	.st19{fill:url(#SVGID_13_);}
	.st20{fill:url(#SVGID_14_);}
	.st21{fill:#262836;}
	.st22{fill:url(#SVGID_15_);}
	.st23{fill:#A67C52;}
	.st24{fill:#2F3554;}
</style>
<title>15</title>
<linearGradient id="SVGID_1_" gradientUnits="userSpaceOnUse" x1="175.8294" y1="19.2244" x2="178.5959" y2="-33.9533" gradientTransform="matrix(1 0 0 -1 -34.98 278.35)">
	<stop  offset="1.000000e-02" style="stop-color:#000000"/>
	<stop  offset="8.000000e-02" style="stop-color:#000000;stop-opacity:0.69"/>
	<stop  offset="0.21" style="stop-color:#000000;stop-opacity:0.32"/>
	<stop  offset="1" style="stop-color:#000000;stop-opacity:0"/>
</linearGradient>
<path class="st0" d="M115.2,294c-1.7,0.5-3.7,1.3-4.1,2.9c5.5,3.2,12.3,4,18.8,3.8c6.5-0.2,13-1.2,19.5-1.3c8.6,0,18.2,1.4,25.1-3.4
	c-3.1-1.8-6.6-2.8-10.2-3C165.6,285.6,120.3,292.5,115.2,294z"/>
<linearGradient id="SVGID_2_" gradientUnits="userSpaceOnUse" x1="197.3384" y1="224.1103" x2="209.4224" y2="26.0042" gradientTransform="matrix(1 0 0 -1 -34.98 278.35)">
	<stop  offset="1.000000e-02" style="stop-color:#000000"/>
	<stop  offset="8.000000e-02" style="stop-color:#000000;stop-opacity:0.69"/>
	<stop  offset="0.21" style="stop-color:#000000;stop-opacity:0.32"/>
	<stop  offset="1" style="stop-color:#000000;stop-opacity:0"/>
</linearGradient>
<path class="st1" d="M5,205.3c-2.3,0-5.5,1.1-4.9,3.2l105.7,8c12.4,0.9,24.9,1.9,37.4,1.9c18.9,0,37.7-2.2,56.5-3.2
	c17.7-0.9,35.5-0.9,53.2-0.8c16.4,0.1,36.6,2.8,52.6-1.2c2.4-0.6,4.8-2.4,4.7-4.7c-0.1-1.1-0.7-2.2-0.2-3.2c0.3-0.5,0.7-0.9,1.2-1.1
	c3.3-1.9,7.4-0.4,11.2,0.4c6,1.2,12.3,0.5,17.8-2.1c1-0.4,1.9-1.1,2.5-1.9c0.6-0.9,0.4-2.1-0.5-2.7c-0.4-0.2-0.9-0.3-1.4-0.3
	l-32.4-2.3c-1.2-0.2-2.4-0.1-3.6,0.3c-1.3,0.5-1.2,1.9-2.2,2.5c-1.7,0.9-5.5,0.4-7.4,0.5c-4.9,0.3-9.8,0.5-14.7,0.7
	c-9.8,0.4-19.6,0.8-29.4,1.1c-20,0.6-40.1,1-60.2,1.3c-39.7,0.6-79.4,0.9-119,2.3C49.5,204.7,27.2,204.8,5,205.3z"/>
<path class="st2" d="M86.3,0.4c-1.9-0.6-3.9-0.6-5.7,0.1c-2.4,0.8-4.3,2.5-5.3,4.7c0,0.5-0.5,1-1.1,0.9c0,0-0.1,0-0.1,0
	c-2.1,0-4.1,0.7-5.6,2c-1.8,1.5-1.8,3.4-2,5.6c-0.6-0.3-1.3-0.3-1.9,0c-0.6,0.3-1.1,0.6-1.6,1.1c-0.8,0.6-1.4,1.3-1.8,2.2
	c-0.6,1.4,0.1,3,0.1,4.6c0,0.1,0,0.3-0.1,0.4c-0.1,0-0.3,0-0.4,0c-0.4-0.1-0.8-0.3-1.3-0.3c-1.1,0-2,0.7-2.2,1.7
	c-0.2,1-0.1,1.9,0.2,2.9c0.3,0.9,0.2,1.9-0.1,2.8c-0.3,0.6-0.8,1.1-1.3,1.6c-1.6,1.3-2.6,3.1-2.9,5.1c-0.1,0.9,0.2,1.9,0.8,2.7
	c0.6,0.8,1.6,1.2,2.6,1.1c2.4-0.3,3.2-3.4,5.5-4.1c2.3-0.7,4.8-3.2,6.2-5.2c1.2-1.6,2.3-3.4,4.3-4c0.6-0.1,1.3-0.3,1.9-0.6
	c0.4-0.3,0.7-0.6,0.9-1c0.8-1.1,1.4-2.3,1.9-3.6c0.7-2.6,0-5.4,1.3-7.8c0.8-1.4,2.1-2.4,3.7-2.7c0.7-0.2,1.4-0.2,2-0.4
	c0.8-0.2,1.5-0.5,2.2-1c1.8-0.9,3-2.6,3.3-4.4C89.9,2.7,88.1,1.1,86.3,0.4z"/>
<path class="st2" d="M92.2,3.6c1.5,0.5,2.3,2,2,3.4c-0.2,0.6-0.6,1.1-1.1,1.5l-2.6,2.7l-1.1-3.7c-0.1-0.7-0.5-1.3-1-1.8
	c-0.7-0.4-1.7-0.4-2.4,0C85.2,6,84.5,6.6,83.8,7c-0.2,0.1-0.4,0.2-0.6,0.1C83,7,83,6.6,83.1,6.3C84.3,3.2,89,2.3,92.2,3.6z"/>
<path class="st3" d="M93.9,103.6c0.1,1.2,0.5,2.4,1.3,3.5c1.2,1.3,3.1,2,4.7,3c0.3,0.2,0.6,0.4,0.7,0.8c0,0.3-0.3,0.6-0.6,0.7
	c-0.3,0.1-0.7,0.1-1,0.1c-1.6-0.2-3.3-0.4-4.9-0.4c-0.8,0-1.8,0.1-2.3-0.5c-0.3-0.5-0.5-1.1-0.3-1.7c0.1-2.2,0-4.4-0.6-6.6
	c-0.2-0.5-0.2-1.1-0.2-1.6c0.2-0.8,1-1.3,1.9-1.2c0.3,0,0.5,0.2,0.7,0.3C94.1,100.7,93.8,102.6,93.9,103.6z"/>
<path class="st3" d="M67.5,111.8c-0.2,1.2,0,2.5,0.5,3.6c0.8,1.6,2.6,2.5,4,3.8c0.3,0.2,0.5,0.5,0.5,0.9c-0.1,0.3-0.4,0.6-0.7,0.6
	c-0.3,0-0.7,0-1-0.1c-1.6-0.5-3.1-1-4.7-1.3c-0.8-0.1-1.8-0.3-2.2-0.9c-0.2-0.6-0.2-1.2,0-1.7c0.6-2.1,0.9-4.3,0.9-6.5
	c-0.1-0.5,0-1.1,0.2-1.6c0.3-0.8,1.3-1.1,2.1-0.8c0.3,0.1,0.5,0.3,0.6,0.5C68.3,109,67.6,110.8,67.5,111.8z"/>
<path class="st4" d="M62.3,52c0,0,13.6,18.8,22.6,24.5c-0.2,1.9-0.1,3.8,0.1,5.7c0.5,3,2,5.7,2.6,8.7l1.7,10.1
	c0.1,0.5,0.2,1,0.7,1.2c0.3,0.1,0.6,0.1,0.9,0l3.8-1C94.3,95,94.5,89,95,82.9c0.3-2.4,0.4-4.9,0.2-7.4c-0.6-5.3-5.3-10.1-8.6-14.3
	c-2-2.6-4.1-6.4-6.8-8.4c-2.3-1.6-5.5-0.9-8.4-0.6c-2.2,0.2-4.3,0-6.4-0.4C64.1,51.5,63.1,51.5,62.3,52z"/>
<path class="st4" d="M57.1,51.9c0,0,5.3,22.2,11.4,30.4c-0.9,1.7-1.6,3.5-2.1,5.3c-0.3,1.5-0.5,3-0.6,4.6l-1.2,18.5
	c1.9,0.1,3.8-0.1,5.6-0.7l7-16.3c1.3-2.6,2.1-5.4,2.3-8.3c0-5.6-5.7-25.8-6.4-26.9c-1.5-2.3-4.8-2.7-7.6-3.4
	c-2.1-0.5-4.1-1.4-5.8-2.6C58.8,52.1,58,51.6,57.1,51.9z"/>
<path class="st3" d="M106,34.6c2.9,1.2,6.1,1.7,9.3,1.3c0.9-0.2,1.9-0.3,2.9-0.1c-0.4,0.5-0.8,1.3-0.2,1.8c0.2,0.1,0.4,0.2,0.6,0.2
	c0.8,0.1,1.6,0,2.3-0.2c0.3-0.2,0.7-0.2,1.1-0.2c0.7,0.2,1.1,0.8,1,1.5c-0.2,0.6-0.7,1.2-1.3,1.5c-2,1.2-4.6,1.4-6.7,0.3
	c-0.6-0.3-1.2-0.7-1.8-1c-1.2-0.5-2.4-0.9-3.7-1c-3.8-0.7-7.5-1.7-11.1-3c-1.1-0.2-2-0.9-2.6-1.8c-0.7-1.7,0.6-4.5,2.8-3.4
	C101.1,31.9,103.3,33.6,106,34.6z"/>
<path class="st5" d="M88.3,25.1c4.2,2.6,9,4.4,14,5.3c0.2,0,0.5,0.1,0.5,0.3c0,0.1,0,0.3-0.1,0.4c-1,1.9-2.3,3.7-3.8,5.3
	c-0.2,0.2-0.4,0.4-0.6,0.5c-0.5,0.1-1,0.1-1.4-0.2c-3.2-1.2-6.4-2.5-9.4-4c-2.7-1.1-5.2-2.8-7.1-4.9c-1-1.1-1.6-2.4-1.7-3.9
	c0-1.6,1.5-4.4,3.7-3.6c1,0.3,1.8,1.4,2.5,2.1C85.9,23.4,87,24.3,88.3,25.1z"/>
<linearGradient id="SVGID_3_" gradientUnits="userSpaceOnUse" x1="1531.0872" y1="723.9288" x2="1508.9532" y2="699.0639" gradientTransform="matrix(-0.82 0.58 -0.58 -0.82 1727.4701 -274.55)">
	<stop  offset="1.000000e-02" style="stop-color:#000000"/>
	<stop  offset="8.000000e-02" style="stop-color:#000000;stop-opacity:0.69"/>
	<stop  offset="0.21" style="stop-color:#000000;stop-opacity:0.32"/>
	<stop  offset="1" style="stop-color:#000000;stop-opacity:0"/>
</linearGradient>
<path class="st6" d="M88.3,25.1c4.2,2.6,9,4.4,14,5.3c0.2,0,0.5,0.1,0.5,0.3c0,0.1,0,0.3-0.1,0.4c-1,1.9-2.3,3.7-3.8,5.3
	c-0.2,0.2-0.4,0.4-0.6,0.5c-0.5,0.1-1,0.1-1.4-0.2c-3.2-1.2-6.4-2.5-9.4-4c-2.7-1.1-5.2-2.8-7.1-4.9c-1-1.1-1.6-2.4-1.7-3.9
	c0-1.6,1.5-4.4,3.7-3.6c1,0.3,1.8,1.4,2.5,2.1C85.9,23.4,87,24.3,88.3,25.1z"/>
<path class="st5" d="M148.1,17.1c2.1,2.5,1.7,6-1,8c-1.3,1-3,1.4-4.7,1.2c0,0-6.8,0.1-5.2,6.1l12.9,15.2l-16.4,12
	c-6.4,1.4-6.5-4.9-6.5-4.9c0.5-3.1-1.8-6-5.2-6.5c-3.4-0.4-6.5,1.7-6.9,4.8c-0.5,3.1,1.8,6,5.2,6.5c0.1,0,0.2,0,0.3,0
	c5.8,1.8,3.6,7,3.6,7l-16.4,12L74.4,39.3l16.2-12c6.4-1.4,6.5,4.9,6.5,4.9c-0.5,3.1,1.8,6,5.1,6.5c3.3,0.5,6.5-1.7,7-4.8
	c0.3-1.6-0.2-3.1-1.2-4.4c-1.1-1.2-2.6-2-4.3-2.2c-5.8-1.8-3.5-7.1-3.5-7.1l16.5-12.1l12.9,15.3c0,0,5.7,2.1,7.6-3.3
	c0.3-3.1,3.3-5.4,6.7-5.1C145.6,15.1,147.1,15.9,148.1,17.1z"/>
<linearGradient id="SVGID_4_" gradientUnits="userSpaceOnUse" x1="3295.7761" y1="-1743.2804" x2="3529.4314" y2="-1856.6273" gradientTransform="matrix(-0.7891 -0.6143 -0.6143 0.7891 1689.4561 3526.4917)">
	<stop  offset="1.000000e-02" style="stop-color:#000000"/>
	<stop  offset="8.000000e-02" style="stop-color:#000000;stop-opacity:0.69"/>
	<stop  offset="0.21" style="stop-color:#000000;stop-opacity:0.32"/>
	<stop  offset="1" style="stop-color:#000000;stop-opacity:0"/>
</linearGradient>
<path class="st7" d="M148.1,17.1c2.1,2.5,1.7,6-1,8c-1.3,1-3,1.4-4.7,1.2c0,0-6.8,0.1-5.2,6.1l12.9,15.2l-16.4,12
	c-6.4,1.4-6.5-4.9-6.5-4.9c0.5-3.1-1.8-6-5.2-6.5c-3.4-0.4-6.5,1.7-6.9,4.8c-0.5,3.1,1.8,6,5.2,6.5c0.1,0,0.2,0,0.3,0
	c5.8,1.8,3.6,7,3.6,7l-16.4,12L74.4,39.3l16.2-12c6.4-1.4,6.5,4.9,6.5,4.9c-0.5,3.1,1.8,6,5.1,6.5c3.3,0.5,6.5-1.7,7-4.8
	c0.3-1.6-0.2-3.1-1.2-4.4c-1.1-1.2-2.6-2-4.3-2.2c-5.8-1.8-3.5-7.1-3.5-7.1l16.5-12.1l12.9,15.3c0,0,5.7,2.1,7.6-3.3
	c0.3-3.1,3.3-5.4,6.7-5.1C145.6,15.1,147.1,15.9,148.1,17.1z"/>
<linearGradient id="SVGID_5_" gradientUnits="userSpaceOnUse" x1="129.1026" y1="252.6971" x2="141.2467" y2="193.1373" gradientTransform="matrix(1 0 0 -1 -34.98 278.35)">
	<stop  offset="1.000000e-02" style="stop-color:#000000"/>
	<stop  offset="8.000000e-02" style="stop-color:#000000;stop-opacity:0.69"/>
	<stop  offset="0.21" style="stop-color:#000000;stop-opacity:0.32"/>
	<stop  offset="1" style="stop-color:#000000;stop-opacity:0"/>
</linearGradient>
<path class="st8" d="M94,51.8c3.5,2.7,7.1,5.5,11.4,6.2c1.7,0.3,3.4,0.1,4.8-0.8c0.5-0.3,0.8-0.8,0.7-1.3c-0.2-0.7-1-0.9-1.7-1
	c-3.3-0.4-6.4-1.5-9.2-3.1c-1-0.7-2-1.4-3-2.3l-7-5.8c-0.2-0.2-0.4-0.3-0.7-0.3c-0.3,0-0.5,0.3-0.6,0.5c-0.4,0.8-0.8,1.7-1,2.6
	c-0.2,1,0,1.1,0.9,1.7C90.6,49.4,92.3,50.6,94,51.8z"/>
<path class="st3" d="M97.2,47c2.4,2,5.4,3.3,8.6,3.7c0.9,0,1.9,0.2,2.7,0.6c-0.6,0.4-1.2,1.1-0.8,1.7c0.1,0.2,0.3,0.3,0.5,0.3
	c0.7,0.3,1.5,0.4,2.3,0.4c0.4-0.1,0.8,0,1.1,0.1c0.6,0.3,0.8,1.1,0.5,1.7c0,0,0,0,0,0c-0.4,0.6-1,1-1.7,1.1
	c-2.3,0.7-4.8,0.1-6.5-1.4c-0.5-0.5-0.9-1-1.4-1.4c-1-0.8-2.1-1.4-3.3-2c-3.4-1.7-6.6-3.6-9.7-5.7c-1-0.5-1.7-1.4-2-2.4
	c-0.2-1.8,1.9-4.2,3.7-2.5C93.3,43,94.9,45.2,97.2,47z"/>
<path class="st5" d="M57.1,54.7c0.3,0.3,0.6,0.5,0.9,0.7c1.4,0.8,2.9,1.4,4.5,2c4,1.3,8.4,1.3,12.4-0.1c1.6-0.5,3.1-1.3,4.4-2.2
	c0.5-0.3,0.9-0.7,1.3-1.2c0.4-0.8,0.5-1.7,0.3-2.6c-0.4-4.5-0.9-9.1,0-13.5c0.3-1.5,0.8-2.9,1.4-4.3c1.2-1.9,2.1-3.9,2.9-5.9
	c0.5-2.6-0.2-5.2-2-7.2c-1.9-2.2-5.3-4.2-8.3-3.2c-3.5,1.2-6.5,3.4-8.7,6.1c-2.4,3.1-4.2,6.6-5.6,10.2c-0.6,1.4-1.1,2.8-1.6,4.3
	c-0.9,3.5-1.6,7.1-1.8,10.8c-0.2,1.5-0.3,3-0.5,4.5C56.7,53.6,56.8,54.2,57.1,54.7z"/>
<linearGradient id="SVGID_6_" gradientUnits="userSpaceOnUse" x1="1503.7823" y1="691.3906" x2="1550.6461" y2="688.8677" gradientTransform="matrix(-0.82 0.58 -0.58 -0.82 1727.4701 -274.55)">
	<stop  offset="1.000000e-02" style="stop-color:#000000"/>
	<stop  offset="8.000000e-02" style="stop-color:#000000;stop-opacity:0.69"/>
	<stop  offset="0.21" style="stop-color:#000000;stop-opacity:0.32"/>
	<stop  offset="1" style="stop-color:#000000;stop-opacity:0"/>
</linearGradient>
<path class="st9" d="M74.9,57.3c1.6-0.5,3.1-1.3,4.4-2.2c0.5-0.3,0.9-0.7,1.3-1.2c0.4-0.8,0.5-1.7,0.3-2.6c-0.4-4.5-0.9-9.1,0-13.5
	c-0.6-0.5-1.2-1-1.8-1.5c-1.4-1.1-3.5-3.2-5.6-3.1c0.5,2,0.9,4.1,1.2,6.2c0.3,2.1,0.2,4.2,0.5,6.3c0.5,3.6,0.4,7.3-0.3,10.9
	C74.9,56.8,74.9,57,74.9,57.3z"/>
<path class="st5" d="M92.3,40c0.2,0.1,0.4,0.3,0.5,0.5c0,0.2-0.1,0.4-0.2,0.6c-1.3,1.7-2.9,3.2-4.8,4.3c-0.2,0.1-0.4,0.2-0.6,0.2
	c-0.3,0-0.5-0.1-0.7-0.3c-2.9-2-5.7-4-8.5-6.1C76,38,74.4,36.6,73.1,35c-1-1.5-1.7-3.1-2.2-4.8c-1.7-5,3.4-7.2,6.9-3.5
	C82.4,31.5,86.5,36.2,92.3,40z"/>
<path class="st4" d="M91.6,110.8c-0.2-0.3-0.1-0.7,0.1-1c0.3-0.3,0.8-0.1,1.2,0c0.9,0.4,1.8,0.7,2.8,0.9c1,0.2,2,0.1,2.9-0.3
	c0.5-0.3,1-0.7,1.5-0.6c0.3,0,0.5,0.1,0.8,0.3c0.9,0.4,1.8,0.7,2.7,0.9c0.4,0,0.8,0.2,1.1,0.3c0.1,0.1,0.2,0.2,0.2,0.3
	c0,0.3-0.3,0.5-0.5,0.6c-3,1.1-6.3,0.7-9.5,0.4c-0.4,0-0.7,0-1.1,0c-0.5,0.1-1.2,0.3-1.6,0C91.8,112.1,91.6,111.5,91.6,110.8z"/>
<path class="st4" d="M63.3,118.4c-0.1-0.3,0-0.7,0.3-1c0.4-0.2,0.8,0,1.2,0.1c0.8,0.5,1.7,0.9,2.6,1.3c0.9,0.3,1.9,0.3,2.9,0
	c0.5-0.2,1-0.5,1.6-0.4c0.3,0.1,0.5,0.2,0.7,0.4c0.8,0.5,1.7,1,2.6,1.2c0.4,0.1,0.8,0.2,1.1,0.5c0.1,0.1,0.2,0.2,0.2,0.3
	c0,0.3-0.3,0.4-0.6,0.5c-3.1,0.7-6.3,0-9.5-0.7c-0.3-0.1-0.7-0.1-1.1-0.1c-0.5,0-1.2,0.2-1.6-0.2C63.4,119.6,63.3,119,63.3,118.4z"
	/>
<path class="st3" d="M89.8,12.7c-0.2,0.7-0.5,1.5-0.7,2.2c-0.2,1.1-0.5,2.2-0.9,3.3c-0.4,1.1-1.3,1.9-2.5,2.3
	c-1.2,0.4-2.5-0.2-2.9-1.3c-0.7,0.1-0.9,0.9-0.9,1.6c0.1,0.7,0,1.3-0.4,1.9c-0.6,0.7-1.9,0.4-2.7-0.1c-2.6-1.6-3.9-4.6-3.3-7.4
	c0.7-3,0.7-6.5,2.5-9.1c0.7-0.9,1.5-1.6,2.4-2.2c0.8-0.6,1.8-0.9,2.9-1.1c0.7,0,1.5,0,2.2,0.2c3,0.5,5.6,0.9,5.6,4.1
	C90.9,9,90.5,10.9,89.8,12.7z"/>
<path class="st2" d="M86.1,7.5c-0.5,0-1-0.1-1.4,0.2S84.2,8.5,83.9,9c-0.5,0.9-1.8,1-2.7,1.4c-1.2,0.6-1.9,1.7-1.9,3
	c0-0.4-0.1-0.8-0.3-1.1c-0.2-0.3-0.7-0.4-1.1-0.2c0,0,0,0,0,0c-0.1,0.1-0.2,0.3-0.2,0.5c-0.1,0.8,0.3,1.5,0.9,2
	c-0.6,1.2-1.9,1.9-3.3,1.9c-0.4,0-0.9-0.1-1.2-0.4c-0.2-0.2-0.4-0.4-0.5-0.7c-0.8-2.1,0.4-4.4,0.7-6.6c0-0.8,0.2-1.6,0.4-2.3
	c0.3-0.5,0.6-1,1.1-1.4c1.3-1.5,3.1-2.6,5.1-3.2c1.9-0.5,5.7-0.2,7.2,1.2c1,1.2,0.8,3-0.5,3.9C87.3,7.2,86.7,7.4,86.1,7.5z"/>
<linearGradient id="SVGID_7_" gradientUnits="userSpaceOnUse" x1="155.6464" y1="201.1402" x2="153.6381" y2="-36.5267" gradientTransform="matrix(1 0 0 -1 -34.98 278.35)">
	<stop  offset="1.000000e-02" style="stop-color:#000000"/>
	<stop  offset="8.000000e-02" style="stop-color:#000000;stop-opacity:0.69"/>
	<stop  offset="0.21" style="stop-color:#000000;stop-opacity:0.32"/>
	<stop  offset="1" style="stop-color:#000000;stop-opacity:0"/>
</linearGradient>
<path class="st10" d="M85.2,209.3v-24.9c3.5-7.1,10.5-2.3,10.5-2.3c3,2.9,8,3,11.1,0.2s3.3-7.4,0.3-10.3c-3-2.9-8-3-11.1-0.2
	c-0.1,0.1-0.2,0.2-0.3,0.2c-6.5,4-10.5-2.3-10.5-2.3V145H112c0,0,6.8-3.6,2.4-9.7c-3.1-2.8-3.3-7.4-0.3-10.3c3-2.9,8-3,11.1-0.2
	c3.1,2.8,3.3,7.4,0.3,10.3c-0.1,0.1-0.2,0.2-0.3,0.2c0,0-5.2,6.4,2.4,9.7h26.8v64.4H85.2z"/>
<path class="st5" d="M34,208h-4.8L78.6,86.5c0.3-0.8,1.2-1.3,2.1-1.3l0,0c1.2,0,2.3,0.9,2.3,2.1c0,0.3,0,0.5-0.1,0.7L34,208z"/>
<polygon class="st5" points="62.9,208 58.1,208 108.1,85.2 113,85.2 "/>
<polygon class="st5" points="100.3,104.3 74.8,104.3 76,101.2 101.6,101.2 "/>
<polygon class="st5" points="92.5,123.6 66.9,123.6 68.2,120.5 93.8,120.5 "/>
<polygon class="st5" points="84.6,142.9 59,142.9 60.3,139.8 85.9,139.8 "/>
<polygon class="st5" points="76.8,162.2 51.2,162.2 52.5,159 78,159 "/>
<polygon class="st5" points="68.9,181.5 43.3,181.5 44.6,178.3 70.2,178.3 "/>
<linearGradient id="SVGID_8_" gradientUnits="userSpaceOnUse" x1="145.1105" y1="162.1801" x2="44.5261" y2="104.4902" gradientTransform="matrix(1 0 0 -1 -34.98 278.35)">
	<stop  offset="1.000000e-02" style="stop-color:#000000"/>
	<stop  offset="8.000000e-02" style="stop-color:#000000;stop-opacity:0.69"/>
	<stop  offset="0.21" style="stop-color:#000000;stop-opacity:0.32"/>
	<stop  offset="1" style="stop-color:#000000;stop-opacity:0"/>
</linearGradient>
<path class="st11" d="M76.2,104.3l-6.6,16.1h24.2l-1.3,3.2H68.3l-6.6,16.1h24.2l-1.3,3.2H60.5L53.9,159h24.2l-1.3,3.2H52.6L46,178.3
	h24.2l-1.3,3.2H44.7L34,208h-4.8L78.6,86.5c0.5-1,1.9-1.5,3-1c0.7,0.3,1.2,1,1.3,1.7c0,0.3,0,0.5-0.1,0.7l-5.4,13.2h24.2l-1.3,3.2
	L76.2,104.3z"/>
<linearGradient id="SVGID_9_" gradientUnits="userSpaceOnUse" x1="113.9276" y1="171.7087" x2="-61.1643" y2="71.2955" gradientTransform="matrix(1 0 0 -1 0 302)">
	<stop  offset="1.000000e-02" style="stop-color:#000000"/>
	<stop  offset="8.000000e-02" style="stop-color:#000000;stop-opacity:0.69"/>
	<stop  offset="0.21" style="stop-color:#000000;stop-opacity:0.32"/>
	<stop  offset="1" style="stop-color:#000000;stop-opacity:0"/>
</linearGradient>
<polygon class="st12" points="62.9,208 58.1,208 108.1,85.2 113,85.2 "/>
<path class="st13" d="M302.7,103c-0.7,0.6-1.6,0.9-2.5,1.1c-0.8,0-1.7-0.1-2.5-0.4l-11.9-3.7c-1.9,1.4-2.3,3.8-1,5.6
	c1.2,1.2,2.7,2,4.4,2.4l8.2,2.7c3.8,1.7,8.2,1.6,12-0.1c2.4-0.8,5.1-1.7,6.3-3.8c1.2-2.1,0.3-4.9,0.7-7.4c0.5-1.6,0.8-3.2,1-4.8
	c0-1.4-1.2-3.5-3-3.2c-1.5,0.3-2.6,2.8-3.4,3.8C308.6,98.2,305.9,100.8,302.7,103z"/>
<path class="st14" d="M284.4,99.4c-0.1-0.3-0.3-0.6-0.6-0.8c-0.2-0.2-0.6-0.3-0.9-0.2c-0.3,0.2-0.5,0.5-0.5,0.9c0,0.1,0,0.2-0.1,0.3
	c-0.1,0.1-0.2,0-0.4,0c-1.3-0.2-2.7-0.4-4.1-0.6c-0.4-0.1-0.9,0.2-1,0.6c0,0.1,0,0.3,0,0.4c0.1,0.4,0.4,0.8,0.7,1.2
	c0.7,1.1,1,2.5,2.1,3.2c0.7,0.4,1.5,0.5,2.3,0.4c0.8,0,1.6-0.2,2.3-0.1c0.5,0.1,1.1,0,1.5-0.2c0.4-0.3,0.6-0.7,0.5-1.1
	c-0.1-0.7-0.3-1.3-0.7-1.8C285.2,100.9,284.8,100.1,284.4,99.4z"/>
<path class="st14" d="M317.6,182.6c-4.5-1-3.7,5-4.9,7.3c-0.8,1.1-1.7,2.2-2.9,3c-1.1,0.9-1.8,2.1-2,3.4c0,0.2,0,0.5,0.2,0.7
	c0.2,0.3,0.6,0.4,0.9,0.5c2.6,0.7,5.4,0.4,7.8-0.7c1.1-0.5,2.1-1.3,2.7-2.3c0.5-1.1,0.7-2.3,0.7-3.4
	C320.2,188.6,321.4,183.4,317.6,182.6z"/>
<path class="st5" d="M313.5,195c0,0-13,0.5-7.5,4.3c5.5,3.8,13.7-0.9,14.5-1.8c0.8-0.9,0.1-2.3,0.1-2.3L313.5,195z"/>
<path class="st13" d="M320,196.7c-1.1,1.3-7.2,3.1-9.9,2.9c-2.7-0.2-5.1-1.3-4.8-3c0.3-1.6,5-5.4,5.9-5.4s1.6,1.9,3.4,2.3
	c1.6,0.3,3.3-0.3,4.4-1.5c0.3-0.4,0.9-0.6,1.4-0.4C321.1,193.3,321,195.2,320,196.7z"/>
<path class="st14" d="M333.2,185c-4.5-1-3.7,5-4.9,7.2c-0.8,1.2-1.7,2.2-2.9,3c-1.1,0.9-1.8,2.1-2,3.4c0,0.3,0,0.5,0.2,0.7
	c0.2,0.3,0.6,0.4,0.9,0.5c2.6,0.7,5.4,0.4,7.8-0.7c1.1-0.5,2.1-1.3,2.7-2.3c0.5-1.1,0.7-2.2,0.7-3.4
	C335.8,190.9,337,185.8,333.2,185z"/>
<path class="st5" d="M329.2,197.3c0,0-13,0.5-7.5,4.3s13.7-0.9,14.5-1.8c0.8-0.9,0.1-2.3,0.1-2.3L329.2,197.3z"/>
<path class="st13" d="M335.6,199c-1.1,1.3-7.2,3.1-9.9,2.9s-5.1-1.3-4.8-3c0.3-1.6,5-5.4,5.9-5.3c0.9,0.1,1.6,1.9,3.4,2.3
	c1.6,0.3,3.3-0.3,4.4-1.4c0.3-0.4,0.9-0.6,1.4-0.4C336.7,195.7,336.6,197.5,335.6,199z"/>
<path class="st4" d="M321.5,130.3l6.1,59.6l8.8-1c3.5-14.5,2.6-58.1,2.6-58.1L321.5,130.3z"/>
<path class="st4" d="M327.5,128.7l-6.1,59.6l-8.8-1c-5-37.7-0.9-61.2-0.9-61.2L327.5,128.7z"/>
<path class="st13" d="M312.6,107.2c-0.1-1.1-0.4-2.2-0.5-3.3c-0.3-2.2-0.2-4.5,0.1-6.8c0.4-2.4,1.2-4.7,2.3-6.9
	c1-1.9,2.9-2.7,4.9-3.6c1.7-0.9,3.6-1.5,5.5-1.7c1.4-0.1,2.7,0,4.1,0.2c4.1,0.7,9.6,2.7,12.4,5.8c2.1,2.3,2.4,5.5,2.4,8.6
	c0.1,4.2,0,8.3-0.3,12.5c0,0.6-0.1,1.2-0.1,1.8c-0.2,4.6-1,9.2-2.2,13.7c-0.2,1.4-1.1,2.7-2.3,3.5c-3.2,1.8-8.2,0.8-11.7,0.3
	c-4.6-0.6-9.4-1.2-13.5-3.4c-0.9-0.3-1.5-1-1.9-1.7c-0.2-1-0.1-2,0.4-2.9c1.4-4.3,0.3-8.7,0.3-13.1c0-0.8,0.1-1.6,0.1-2.4
	C312.6,107.5,312.6,107.4,312.6,107.2z"/>
<linearGradient id="SVGID_10_" gradientUnits="userSpaceOnUse" x1="326.1614" y1="242.8965" x2="413.8699" y2="36.9798" gradientTransform="matrix(1 0 0 -1 -34.98 278.35)">
	<stop  offset="1.000000e-02" style="stop-color:#000000"/>
	<stop  offset="8.000000e-02" style="stop-color:#000000;stop-opacity:0.69"/>
	<stop  offset="0.21" style="stop-color:#000000;stop-opacity:0.32"/>
	<stop  offset="1" style="stop-color:#000000;stop-opacity:0"/>
</linearGradient>
<path class="st15" d="M327.2,114.8c1.1,0.6,2.3,1.1,3.6,1.3c3.8,1,7.7,1.6,11.4,2.7c0.3,0,0.5,0.2,0.7,0.3c0.2,0.2,0.2,0.5,0.2,0.7
	c0,1-0.1,2-0.5,3c-0.1,0.5-0.4,0.9-0.8,1.2c-0.5,0.2-1.2,0.2-1.7,0l-14.2-2.8c-1-0.2-2.1-0.4-3.1-0.3c-1.2,0.1-2.5,0.4-3.6,0.8
	c-2.2,0.6-4.4,1.1-6.7,1.3c0.1-2.5,0.5-5,1-7.5c0.2-0.7,0.5-1.4,0.9-2.1c0.5-0.7,1-1.3,1.6-1.8c2.3-2.2,3.9-5,6.2-7.2
	c1.2-1.2,2.7-1.9,3.8-3.2c0.4-0.5,4.1-4.9,3.8-5.3c0.7,0.8,2.5,0,3.1,0.9c0.4,0.5,0,1.2-0.4,1.8c-2.7,4.3-4.7,8.9-5.6,13.8
	C326.6,113.7,326.1,114.1,327.2,114.8z"/>
<path class="st5" d="M315.6,60.3c3.6,2.2,4.7,6.7,2.4,10.1c-1.1,1.7-3,2.8-5,3.2c0,0-8.1,2.8-3.6,9.4l22.6,13.4l-14.3,21
	c-7.1,4.2-10.1-3.3-10.1-3.3c-0.9-3.9-5-6.5-9.2-5.7c-4.2,0.8-7,4.6-6.1,8.6c0.9,3.9,5,6.5,9.2,5.7c0.1,0,0.2,0,0.3-0.1
	c7.9-0.1,7.5,7.1,7.5,7.1l-14.3,21l-58.4-34.6l14.2-20.8c7.1-4.2,10.1,3.3,10.1,3.3c0.8,4,5,6.5,9.2,5.8s7-4.6,6.2-8.6
	c-0.8-4-5-6.5-9.2-5.8c-0.1,0-0.2,0-0.4,0.1c-7.9,0.1-7.5-7.1-7.5-7.1l14.5-21.2l22.6,13.4c0,0,7.8,0.3,7.7-7c-0.5-1.9-0.1-4,1-5.7
	C307.3,59.2,312,58.2,315.6,60.3z"/>
<path class="st13" d="M350.4,103.3c0.6,0.9,1.1,2,1.4,3c0.5,1.8,0.5,3.7,0.1,5.6c-0.2,1.8-0.9,3.5-2,5c-2.4,2.7-6.7,2.9-10.5,2.6
	c-4.3-0.4-8.5-1.1-12.5-2.3c-0.4-0.1-0.7-0.2-1-0.5c-0.3-0.3-0.6-0.8-0.7-1.2c-0.3-1.1-0.5-2.2-0.6-3.4c4.3-1.1,9-0.2,13.5-0.8
	c1.1,0,1.9-0.8,1.9-1.8c0-0.2,0-0.4-0.1-0.6c-0.2-2.3-1.8-4.4-2.5-6.6c-0.7-2.2-0.7-4.5,0.2-6.6c0.5-1.5,1.7-2.8,3.3-3.4
	c1.8-0.5,2.5,0.8,3.5,2C346.6,97,348.7,100.1,350.4,103.3z"/>
<path class="st14" d="M322.9,110.5c-0.2-0.1-0.4-0.2-0.6-0.2c-0.3,0-0.6,0.2-0.8,0.5c-0.1,0.3-0.3,0.6-0.4,0.8
	c-0.4,0.4-1.1,0.7-1.7,0.7c-0.6-0.1-1.3-0.1-1.9,0c-0.2,0-0.5,0.1-0.6,0.3c-0.2,0.2-0.3,0.4-0.4,0.6c-0.2,0.9,0.1,1.9,0.8,2.6
	c0.7,0.7,1.6,1.2,2.5,1.4c1,0.4,2,0.5,3.1,0.3c0.6-0.2,1.1-0.4,1.6-0.7l2.1-1.1c0.2-0.1,0.3-0.2,0.5-0.3c0.5-0.5-0.2-2.1-0.6-2.7
	C325.3,111.9,324.1,111.1,322.9,110.5z"/>
<path class="st14" d="M321.5,78.8c0-1.1,0.1-2.3,0.2-3.4s0.3-2,0.5-3c0-0.6,0.3-1.1,0.8-1.5c1.7-0.9,3.6-1.4,5.5-1.3
	c1.5-0.1,2.9,0.4,4,1.3c0.6,0.8,1,1.7,1.1,2.7c0.1,2.5-0.2,5-0.8,7.5c-0.3,1.9-0.4,3.9-0.3,5.8c-1,0.6-2.2,1-3.4,1.1
	c-0.6,0-1.1-0.1-1.7-0.3c-0.3-0.1-0.6-0.2-0.7-0.5c-0.1-0.2-0.1-0.4,0-0.7c0-0.2,0-0.4,0-0.6l0,0c0.1-1.1,0.1-2.3-0.1-3.4
	c0-0.1,0-0.2-0.1-0.3c-0.1,0-0.2,0-0.2,0h-0.3c-0.6,0.1-1.2,0.1-1.8,0c-0.7-0.1-1.4-0.4-1.9-0.9C321.6,80.7,321.3,79.7,321.5,78.8z"
	/>
<path class="st4" d="M324,71.5c-0.4,0-0.8,0.2-1.2,0c-0.4-0.3-0.7-0.6-1-1c-0.7-0.8-1-1.9-0.9-2.9c0-0.5,0.2-0.9,0.5-1.3
	c0.3-0.4,0.7-0.6,1.2-0.8c0.9-0.4,1.9-0.6,2.9-0.5c1.4,0.2,2.8,0.8,3.8,1.7c0.2,0.2,0.5,0.4,0.8,0.5c0.3,0.1,0.6,0.1,0.8,0
	c1.8-0.1,3.6,0.4,5,1.4c0.8,0.7,1.4,1.5,2.3,2.1c0.8,0.6,1.6,0.8,2.1,1.5c0.4,0.7,0.3,1.5-0.2,2.1c-0.5,0.6-1.3,1-2.1,1.1
	c0.4,0.9-0.1,1.9-1.1,2.2c0,0,0,0,0,0c-0.3,0-0.6,0.1-0.9,0.3c-0.2,0.1-0.3,0.4-0.5,0.5c-0.5,0.4-1.1,0.5-1.3,1.1
	c-0.1,0.3-0.1,0.5-0.1,0.8c0,0.4-0.2,0.8-0.5,1.1c-0.2,0.2-0.5,0.7-0.8,0.7c-0.3,0.1-0.5-0.3-0.6-0.5c-0.3-1.1-0.2-2.3,0.2-3.4
	c0.4-0.5,0.6-1.1,0.6-1.7c0-0.6-0.9-1.1-1.4-0.7s-0.5,1.2-1,1.1c0.7-1.8-0.2-3.7-2-4.6c-1-0.3-2-0.4-3-0.4
	C325,71.6,324.6,71.5,324,71.5L324,71.5z"/>
<path class="st16" d="M325.9,82.4c1.4-0.3,2.8-0.6,4.1-1.1c0.2,2.2-1.2,4.2-3.4,4.9l0,0c0.1-1.1,0.1-2.3,0-3.4c0-0.1,0-0.2-0.1-0.3
	c-0.1,0-0.2,0-0.2,0L325.9,82.4L325.9,82.4z"/>
<path class="st14" d="M281.1,91.9c0.4,0.6,0.6,1.3,0.3,2c-0.2,0.7-0.6,1.3-1.1,1.8l-2.2,3.1c-0.6,0.8-1.4,1.7-2.4,1.6
	c-2.5-0.2-3.5-6.1-2.6-7.8C274.1,90.4,279.5,90,281.1,91.9z"/>
<path class="st5" d="M292.7,145v64.4h-69.2v-24.9c0,0,3.9-6.3,10.5-2.3c3,2.9,8,3,11.1,0.2c3.1-2.8,3.3-7.4,0.3-10.3
	c-3-2.9-8-3-11.1-0.2c-0.1,0.1-0.2,0.2-0.3,0.2c0,0-6.9,4.8-10.5-2.3V145h26.8c7.6-3.3,2.4-9.7,2.4-9.7c-3.1-2.8-3.3-7.4-0.3-10.3
	c3-2.9,8-3,11.1-0.2c3.1,2.8,3.3,7.4,0.3,10.3c-0.1,0.1-0.2,0.2-0.3,0.2c-4.3,6.1,2.4,9.7,2.4,9.7H292.7z"/>
<linearGradient id="SVGID_11_" gradientUnits="userSpaceOnUse" x1="158.7099" y1="195.4116" x2="488.2915" y2="-35.6496" gradientTransform="matrix(1 0 0 -1 -34.98 278.35)">
	<stop  offset="1.000000e-02" style="stop-color:#000000"/>
	<stop  offset="8.000000e-02" style="stop-color:#000000;stop-opacity:0.69"/>
	<stop  offset="0.21" style="stop-color:#000000;stop-opacity:0.32"/>
	<stop  offset="1" style="stop-color:#000000;stop-opacity:0"/>
</linearGradient>
<path class="st17" d="M292.7,145v64.4h-69.2v-24.9c0,0,3.9-6.3,10.5-2.3c3,2.9,8,3,11.1,0.2c3.1-2.8,3.3-7.4,0.3-10.3
	c-3-2.9-8-3-11.1-0.2c-0.1,0.1-0.2,0.2-0.3,0.2c0,0-6.9,4.8-10.5-2.3V145h26.8c7.6-3.3,2.4-9.7,2.4-9.7c-3.1-2.8-3.3-7.4-0.3-10.3
	c3-2.9,8-3,11.1-0.2c3.1,2.8,3.3,7.4,0.3,10.3c-0.1,0.1-0.2,0.2-0.3,0.2c-4.3,6.1,2.4,9.7,2.4,9.7H292.7z"/>
<path class="st5" d="M178.3,112.8c0,4-3.5,7.3-7.9,7.3c-2.1,0-4.2-0.8-5.7-2.3c-6.5-4-10.5,2.3-10.5,2.3V145h69.2V80.6h-69.2v24.9
	c3.5,7.1,10.5,2.3,10.5,2.3c3-2.9,8-3,11.1-0.2C177.4,108.9,178.3,110.8,178.3,112.8L178.3,112.8z"/>
<path class="st5" d="M183.5,154.7c-3.1,2.8-3.3,7.4-0.3,10.3c3,2.9,8,3,11.1,0.2c3.1-2.8,3.3-7.4,0.3-10.3c-0.1-0.1-0.2-0.2-0.3-0.2
	c0,0-5.2-6.4,2.4-9.7H181C181,145,187.8,148.6,183.5,154.7z"/>
<linearGradient id="SVGID_12_" gradientUnits="userSpaceOnUse" x1="199.4179" y1="34.1199" x2="259.249" y2="355.8341" gradientTransform="matrix(1 0 0 -1 -34.98 278.35)">
	<stop  offset="1.000000e-02" style="stop-color:#000000"/>
	<stop  offset="8.000000e-02" style="stop-color:#000000;stop-opacity:0.69"/>
	<stop  offset="0.21" style="stop-color:#000000;stop-opacity:0.32"/>
	<stop  offset="1" style="stop-color:#000000;stop-opacity:0"/>
</linearGradient>
<path class="st18" d="M154.3,80.6v24.9c3.5,7.1,10.5,2.3,10.5,2.3c3-2.9,8-3,11.1-0.2c3.1,2.8,3.3,7.4,0.3,10.3c-3,2.9-8,3-11.1,0.2
	c-0.1-0.1-0.2-0.2-0.3-0.2c-6.5-4-10.5,2.3-10.5,2.3V145H181c0,0,6.8,3.6,2.4,9.7c-3.1,2.8-3.3,7.4-0.3,10.3c3,2.9,8,3,11.1,0.2
	s3.3-7.4,0.3-10.3c-0.1-0.1-0.2-0.2-0.3-0.2c0,0-5.2-6.4,2.4-9.7h26.8V80.6H154.3z"/>
<path class="st5" d="M154.3,145v64.4h69.2v-24.9c0,0,3.9-6.3,10.5-2.3c3,2.9,8,3,11.1,0.2c3.1-2.8,3.3-7.4,0.3-10.3
	c-3-2.9-8-3-11.1-0.2c-0.1,0.1-0.2,0.2-0.3,0.2c0,0-6.9,4.8-10.5-2.3V145h-26.7c-7.6,3.3-2.4,9.7-2.4,9.7c3.1,2.8,3.3,7.4,0.3,10.3
	c-3,2.9-8,3-11.1,0.2s-3.3-7.4-0.3-10.3c0.1-0.1,0.2-0.2,0.3-0.2c4.3-6.1-2.4-9.7-2.4-9.7H154.3z"/>
<path class="st5" d="M85.2,209.3v-24.9c3.5-7.1,10.5-2.3,10.5-2.3c3,2.9,8,3,11.1,0.2s3.3-7.4,0.3-10.3c-3-2.9-8-3-11.1-0.2
	c-0.1,0.1-0.2,0.2-0.3,0.2c-6.5,4-10.5-2.3-10.5-2.3V145H112c0,0,6.8-3.6,2.4-9.7c-3.1-2.8-3.3-7.4-0.3-10.3c3-2.9,8-3,11.1-0.2
	c3.1,2.8,3.3,7.4,0.3,10.3c-0.1,0.1-0.2,0.2-0.3,0.2c0,0-5.2,6.4,2.4,9.7h26.8v64.4H85.2z"/>
<linearGradient id="SVGID_13_" gradientUnits="userSpaceOnUse" x1="158.2641" y1="253.4868" x2="149.2698" y2="-142.1128" gradientTransform="matrix(1 0 0 -1 -34.98 278.35)">
	<stop  offset="1.000000e-02" style="stop-color:#000000"/>
	<stop  offset="8.000000e-02" style="stop-color:#000000;stop-opacity:0.69"/>
	<stop  offset="0.21" style="stop-color:#000000;stop-opacity:0.32"/>
	<stop  offset="1" style="stop-color:#000000;stop-opacity:0"/>
</linearGradient>
<path class="st19" d="M85.2,209.3v-24.9c3.5-7.1,10.5-2.3,10.5-2.3c3,2.9,8,3,11.1,0.2s3.3-7.4,0.3-10.3c-3-2.9-8-3-11.1-0.2
	c-0.1,0.1-0.2,0.2-0.3,0.2c-6.5,4-10.5-2.3-10.5-2.3V145H112c0,0,6.8-3.6,2.4-9.7c-3.1-2.8-3.3-7.4-0.3-10.3c3-2.9,8-3,11.1-0.2
	c3.1,2.8,3.3,7.4,0.3,10.3c-0.1,0.1-0.2,0.2-0.3,0.2c0,0-5.2,6.4,2.4,9.7h26.8v64.4H85.2z"/>
<path class="st5" d="M178.4,112.8c0,4-3.5,7.3-7.9,7.3c-2.1,0-4.2-0.8-5.7-2.3c0,0-6.9-4.8-10.5,2.3V145h-26.8
	c-7.6-3.3-2.4-9.7-2.4-9.7c3.1-2.8,3.3-7.4,0.3-10.3c-3-2.9-8-3-11.1-0.2c-3.1,2.8-3.3,7.4-0.3,10.3c0.1,0.1,0.2,0.2,0.3,0.2
	c4.3,6.1-2.4,9.7-2.4,9.7H85.2V80.6h26.5c7.6,3.3,2.4,9.7,2.4,9.7c-3.1,2.8-3.3,7.4-0.3,10.3s8,3,11.1,0.2c3.1-2.8,3.3-7.4,0.3-10.3
	c-0.1-0.1-0.2-0.2-0.3-0.2c-4.3-6.1,2.4-9.7,2.4-9.7h27v24.9c0,0,3.9,6.3,10.5,2.3c3-2.9,8-3,11.1-0.2
	C177.5,108.9,178.4,110.8,178.4,112.8L178.4,112.8z"/>
<path class="st5" d="M195.3,236.5c0.1,4-3.4,7.4-7.7,7.4c-2.2,0-4.2-0.8-5.7-2.2c0,0-7-4.7-10.4,2.4l0.4,24.9l-26.8,0.4
	c-7.7-3.2-2.6-9.7-2.6-9.7c3.1-2.8,3.1-7.4,0.1-10.3c-3-2.9-8-2.9-11.1-0.1c-3.1,2.8-3.1,7.4-0.1,10.3c0.1,0.1,0.2,0.1,0.2,0.2
	c4.4,6-2.3,9.7-2.3,9.7l-26.8,0.4l-1-64.4l26.5-0.3c7.7,3.2,2.6,9.7,2.6,9.7c-3.1,2.8-3.1,7.4-0.1,10.3c3,2.9,8,2.9,11.1,0.1
	c3.1-2.8,3.1-7.4,0.1-10.3c-0.1-0.1-0.2-0.1-0.2-0.2c-4.4-6,2.3-9.7,2.3-9.7l27-0.4l0.4,24.9c0,0,4,6.2,10.5,2.1
	c1.5-1.5,3.5-2.3,5.7-2.3C191.7,229.2,195.3,232.5,195.3,236.5z"/>
<linearGradient id="SVGID_14_" gradientUnits="userSpaceOnUse" x1="122.1157" y1="87.5896" x2="240.3279" y2="-40.882" gradientTransform="matrix(1 0 0 -1 -34.98 278.35)">
	<stop  offset="1.000000e-02" style="stop-color:#000000"/>
	<stop  offset="8.000000e-02" style="stop-color:#000000;stop-opacity:0.69"/>
	<stop  offset="0.21" style="stop-color:#000000;stop-opacity:0.32"/>
	<stop  offset="1" style="stop-color:#000000;stop-opacity:0"/>
</linearGradient>
<path class="st20" d="M111.3,205.8c-1,1-1.7,3.2-0.2,4.1c0.5,0.3,1.1,0.4,1.8,0.5l8.1,0.9c-0.2,0,4,44.3,5.6,53.8
	c0.2,1.1,0.7,2.5,1.9,2.7c0.7,0,1.4-0.4,1.8-1c1.2-1.7,1.8-3.7,1.9-5.7c2-14.5,3-29.1,2.9-43.7c0-2.9-0.1-5.9-1.7-8.4
	c-1.9-2.8-5-4.7-8.5-5.2C120.4,202.7,114.7,202.3,111.3,205.8z"/>
<path class="st21" d="M130.8,297.8v0.2c0.3,0.8,1.4,1.1,2.3,1.2c0.9,0.1,1.7,0.1,2.6,0.1c0.4,0,0.8,0,1.2-0.2c0.4-0.1,0.7-0.3,1-0.6
	l2.5-1.7c0.7-0.5,1.3-1,1.9-1.6c0.6-0.6,0.9-1.4,0.8-2.2c-0.1-0.8-0.7-1.5-1.5-1.7c-0.5-0.1-1.1-0.1-1.6,0c-1.2,0.1-2.4-0.4-3-1.3
	c-0.1-0.4-0.4-0.8-0.7-1.1c-0.4-0.2-0.8-0.2-1.2-0.1c-0.9,0-1.7,0.2-2.5,0.5c-0.8,0.3-1.5,0.9-1.8,1.7c-0.1,0.4-0.1,0.7-0.1,1.1
	c0.1,0.8,0.1,1.5,0,2.3c-0.1,0.9-0.2,1.9-0.2,2.8C130.7,297.3,130.7,297.6,130.8,297.8z"/>
<path class="st21" d="M155.1,298.1c-1.7,0.7-3.4,1.3-5.2,1.8c-0.7,0.3-1.5,0.3-2.2,0.1c-0.6-0.3-1-0.7-1.2-1.3
	c-0.2-0.6-0.2-1.2-0.2-1.8c0.1-0.9,0.3-1.9,0.6-2.8c0.2-0.8,0.3-1.7,0.4-2.5c0.2-1.2,0.4-2.4,0.5-3.6l4.5,0.9
	c0.5,0.1,0.9,1.8,1.2,2.1c0.4,0.5,1.1,0.9,1.8,0.9c0.8-0.1,1.5-0.2,2.3-0.2c1,0.2,1.8,1.1,1.8,2c0,1-0.4,1.9-1.2,2.5
	c-0.8,0.6-1.6,1.2-2.6,1.5L155.1,298.1z"/>
<path class="st5" d="M155.1,293.4c-1.2,0.6-2.4,1.2-3.7,1.6h-0.1c-2.1,0.8-4.4-2.3-4.4-2.3s-2.9-16.9-2.9-23.9
	c0.1-4.8-1.1-11.7-3-24.1c-0.5,12.7-2.8,18.3-2.2,22.9c0.9,6.9-0.2,24.1-0.2,24.1s-2,3.4-4.1,2.9h-0.1c-1.3-0.3-2.6-0.6-3.8-1.1
	c0,0-2.5-23.7-2.5-29.9s0.3-11.8,0.3-11.8l-1.3-19.8l5.6-7.6l0.5-0.2l0.4-0.4l6.2-4.2c0,0,0,1-0.1,2.7l4.8,2.4l0.5,0.3l0.5,0.1
	l8.1,1.3c0,0,2.1,30.4,2.9,36.6C157.2,269.1,155.1,293.4,155.1,293.4z"/>
<linearGradient id="SVGID_15_" gradientUnits="userSpaceOnUse" x1="148.5508" y1="58.365" x2="216.0372" y2="-36.1079" gradientTransform="matrix(1 0 0 -1 -34.98 278.35)">
	<stop  offset="1.000000e-02" style="stop-color:#000000"/>
	<stop  offset="8.000000e-02" style="stop-color:#000000;stop-opacity:0.69"/>
	<stop  offset="0.21" style="stop-color:#000000;stop-opacity:0.32"/>
	<stop  offset="1" style="stop-color:#000000;stop-opacity:0"/>
</linearGradient>
<path class="st22" d="M155.1,293.4c-1.2,0.6-2.4,1.2-3.7,1.6h-0.1c-2.1,0.8-4.4-2.3-4.4-2.3s-2.9-16.9-2.9-23.9
	c0.1-4.8-1.1-11.7-3-24.1c-0.5,12.7-2.8,18.3-2.2,22.9c0.9,6.9-0.2,24.1-0.2,24.1s-2,3.4-4.1,2.9h-0.1c-1.3-0.3-2.6-0.6-3.8-1.1
	c0,0-2.5-23.7-2.5-29.9s0.3-11.8,0.3-11.8l-1.3-19.8l5.6-7.6l0.5-0.2l0.4-0.4l6.2-4.2c0,0,0,1-0.1,2.7l4.8,2.4l0.5,0.3l0.5,0.1
	l8.1,1.3c0,0,2.1,30.4,2.9,36.6C157.2,269.1,155.1,293.4,155.1,293.4z"/>
<path class="st23" d="M193.2,187.6c0.1-0.1,0.2-0.1,0.3-0.1c0.3,0,0.3,0.5,0.2,0.8c-0.3,0.8-0.7,1.6-1.3,2.3
	c-0.2,0.2-0.3,0.4-0.3,0.6c0,0.2,0.2,0.4,0.4,0.6c1.1,1.2,1.5,2.7,1.1,4.2c-0.4,1.5-1.2,2.8-2.4,3.8c-0.6,0.7-1.4,1.1-2.3,1.2
	c-1.5,0-3.5-1.8-4.1-3c-0.5-1.2-0.2-2.6,0.7-3.6C187.6,191.6,190.1,189.2,193.2,187.6z"/>
<path class="st23" d="M148.4,173.6c0.5,0.5,1.3,1,1.1,1.6c-0.1,0.3-0.5,0.5-0.8,0.8c-0.7,0.7-1.1,1.6-1.1,2.6c0,1-0.1,1.9-0.4,2.8
	c-0.4,0.9-1.4,1.5-2.4,1.3c-0.6-0.1-1.2-0.6-1.7-0.4c-0.6,0.2-0.6,0.7-0.8,1c-0.6,0.9-1.8,1.5-3,1.3c-1.1-0.2-2.3-0.5-3.3-1.1
	c-0.4-0.2-0.8-0.4-1.1-0.8c-0.2-0.3-0.2-0.7-0.1-1.1c0.4-1.1,0.9-2.1,1.7-3c1.2-1.8,2-3.8,2.2-5.9c0.1-1.5,0-3.1,1-4.2
	c1.4-1.5,4.7-1.5,6.4-0.4C147.8,169.5,146.9,172.1,148.4,173.6z"/>
<path class="st24" d="M146.4,167c-0.2,0.4-0.5,0.7-0.9,0.9c-0.8,0.4-1.4,0.9-2.1,1.3c-0.7,0.4-1.2,1.1-1.4,1.8
	c-0.3,1.3,0.5,2.8,0,4.2c-0.2,0.3-0.7,0.1-0.8-0.2c-0.2-0.3-0.3-0.6-0.6-0.8c-0.5-0.3-1.1,0.2-1.3,0.7c-0.5,1.2,0.2,2.5,1.4,3
	c-0.1,0.4-0.7,0.6-1.1,0.5c-0.5-0.1-0.9-0.2-1.4-0.2c-1.1,0.2-1.4,1.6-2.5,1.8c-0.7,0-1.4-0.4-1.8-1l-1.3-1.3
	c-0.2-0.3-0.4-0.5-0.7-0.7c-0.3-0.2-0.8-0.2-1-0.5c-0.2-0.3,0-0.9-0.3-1.2c-0.1-0.1-0.3-0.2-0.4-0.3c-0.8-0.4-1.2-1.2-0.9-2
	c0-0.1,0-0.2,0-0.3c0-0.1-0.2-0.2-0.3-0.3c-0.8-0.5-1.1-1.5-0.7-2.3c0.2-0.5,0.5-0.9,0.9-1.2c0.3-0.4,0.8-0.6,1.3-0.5l0.2-1.7
	c0-1.1,0.9-2,2.1-2c0.1,0,0.3,0,0.4,0l-0.4-1.4c-0.1-0.2-0.1-0.4,0-0.6c0.1-0.1,0.3-0.2,0.5-0.2c0.5-0.1,1-0.2,1.5-0.2
	c-0.2-0.4-0.3-0.8-0.4-1.2c-0.1-0.2,0-0.4,0.2-0.5c0.1,0,0.2,0,0.3,0c0.2,0,0.4,0,0.6,0c0,0-0.3-1.2-0.3-1.3c-0.1-0.4,0-0.8,0.2-1.1
	c0.3-0.3,0.8-0.5,1.3-0.4c0.5,0.1,0.9,0.2,1.3,0.5c0-0.5,0.6-0.7,1.1-0.7c2-0.1,3.8,0.7,5,2.2c0.1,0.1,0.2,0.2,0.3,0.4
	c0.2,0.1,0.5,0.2,0.7,0.3c0.8,0.3,1.4,1,1.7,1.8c0.2,0.8,0.3,1.6,0.3,2.4c0,0.6,0,1.3-0.2,1.9C146.5,166.6,146.5,166.8,146.4,167z"
	/>
<path class="st13" d="M139.3,182.1c1.2,0.5,2.3,1,3.5,1.6c0.3,0.2,0.6,0.4,0.9,0.7c0.3,0.3,0.3,0.8,0.1,1.1c-0.3,0.5-1,0.3-1.6,0.1
	c-2.5-0.8-5.2-1.1-7.8-1c-0.4,0.1-0.7-0.1-0.9-0.4c-0.1-0.3-0.1-0.7,0.1-1C134.9,180.8,137.1,181.2,139.3,182.1z"/>
<path class="st13" d="M188.2,201.7c-0.5,1.2-1.3,2.3-2.2,3.2c-0.9,1-1.9,1.9-2.9,2.8c-2.3,2.1-4.8,4.1-7.4,5.9
	c-1.8,1.4-3.9,2.5-6.1,3.1c-0.9,0.2-1.9,0.1-2.8-0.2c-0.7-0.3-1.4-0.8-1.9-1.3c-0.7-0.6-8.3-8.8-8.4-8.8c-0.4,0.2-0.8,0.6-0.9,1
	c-1.1,2.1-1.8,4.4-2,6.8c-0.1,1-0.1,2.1,0,3.2c0.3,3.6,1.6,7.3,0.3,10.6c-0.3,0.7-0.7,1.4-1.3,1.9c-0.6,0.5-1.2,0.8-1.9,1.1
	c-1.2,0.5-2.5,0.8-3.8,1c-0.8,0.1-1.5,0.2-2.3,0.2c-2.9,0.1-5.6-0.4-8.4-0.3c-2.4,0.1-4.7,0.7-7.1,0.6c-1.3,0.2-2.6-0.6-2.8-1.8
	c0-0.1,0-0.2,0-0.3c-0.9-4.7-1.4-9.5-1.4-14.3c0-1.7-0.1-3.4-0.2-5c-0.1-1.4,0.3-5-1.4-5.3c-4.4-0.8-9,0.2-13.5-0.4
	c0.1-2.7,1.4-5.3,3.5-7.2c1-0.8,2.2-1.5,3.3-2.1c1.4-0.9,2.6-2,3.7-3.2c3-3.5,6.9-6.3,11.3-8.2c0.7-0.3,1.4-0.6,2.2-0.7h0.2
	c0.1,0,0.2,0,0.3,0c1-0.1,1.9,0,2.9,0.2c6.4,1,12.7,2.3,18.9,4c0.8,0.2,1.6,0.5,2.3,0.9c0.5,0.4,0.9,0.9,1.2,1.4
	c1.7,2.4,3.4,4.9,5.2,7.4c1.5,2.1,3,4.7,5.2,6.3c4.9-1.8,9.4-4.2,13.6-7.2c0.6-0.4,1.3-0.9,2-0.6c0.2,0.1,0.4,0.2,0.6,0.4
	C187.6,198,189,199.4,188.2,201.7z"/>
</svg>
