<?xml version="1.0" encoding="utf-8"?>
<!-- Generator: Adobe Illustrator 22.1.0, SVG Export Plug-In . SVG Version: 6.00 Build 0)  -->
<svg version="1.1" id="Layer_1" xmlns="http://www.w3.org/2000/svg" xmlns:xlink="http://www.w3.org/1999/xlink" x="0px" y="0px"
	 viewBox="0 0 823.6 597" style="enable-background:new 0 0 823.6 597;" xml:space="preserve">
<style type="text/css">
	.st0{fill:#B54D2D;}
	.st1{fill:#EF5018;}
	.st2{fill:url(#SVGID_1_);}
	.st3{fill:#FFFFFF;}
	.st4{fill:url(#SVGID_2_);}
	.st5{fill:url(#SVGID_3_);}
	.st6{fill:url(#SVGID_4_);}
	.st7{opacity:5.000000e-02;fill:#000405;enable-background:new    ;}
	.st8{opacity:0.22;fill:#FFFFFF;enable-background:new    ;}
	.st9{opacity:0.1;enable-background:new    ;}
	.st10{fill:#A0616A;}
	.st11{fill:#1A4DEA;}
	.st12{fill:#2F2E41;}
	.st13{fill:#FF0000;stroke:#660000;stroke-width:0.75;stroke-miterlimit:10;}
</style>
<title>6. New Messages</title>
<path class="st0" d="M675.5,279.6V510c0,12.1-9.8,22-22,22l0,0H309c-12.1,0-22-9.8-22-22l0,0V279.6c0-12.1,9.8-22,21.9-22h344.6
	C665.7,257.6,675.5,267.5,675.5,279.6L675.5,279.6z"/>
<path class="st1" d="M669.6,264.7H292.4l3.1-2.3c0.2-0.1,0.3-0.3,0.4-0.4l179.4-137.6l5.7-4.3l182.6,140L669.6,264.7z"/>
<path class="st1" d="M675.5,279.6l-4.6,3.4l0,0l-33.4,24.2L475.3,424.6L319.3,304.4L287,279.6l0.4-4.2c0.8-4,2.7-7.7,5.5-10.7
	c0.8-0.9,1.6-1.6,2.6-2.3c0.2-0.1,0.3-0.3,0.4-0.4c3.8-2.8,8.4-4.3,13.1-4.3h344.6c11.3,0,20.8,8.6,21.9,19.9
	C675.5,278.2,675.5,278.9,675.5,279.6z"/>
<linearGradient id="SVGID_1_" gradientUnits="userSpaceOnUse" x1="522.5189" y1="300.1883" x2="415.5342" y2="680.3819" gradientTransform="matrix(1 0 0 1 0 -170)">
	<stop  offset="0" style="stop-color:#000000;stop-opacity:0"/>
	<stop  offset="0.91" style="stop-color:#000000;stop-opacity:0.8"/>
	<stop  offset="1" style="stop-color:#000000"/>
</linearGradient>
<path class="st2" d="M675.1,279.6l-4.6,3.4l0,0l-33.3,24.1L475,424.6L318.9,304.4l-32.3-24.8l0.4-4.2c1.1-5.1,3.9-9.8,8-13.1
	l0.4-0.4L475,124.4l5.7-4.3l182.6,140c6.7,3.4,11.1,10,11.9,17.5C675.1,278.2,675.1,278.9,675.1,279.6z"/>
<path class="st3" d="M637.5,262.6v44.6l-59.9,43.3l-13.7,10l-88.6,64.2l-83.4-64.2l-12.9-10l-59.8-46v-41.9
	c0-7.3,5.8-13.1,13.1-13.1l0,0h292.1C631.6,249.5,637.5,255.4,637.5,262.6z"/>
<linearGradient id="SVGID_2_" gradientUnits="userSpaceOnUse" x1="488.4969" y1="404.7119" x2="423.9524" y2="714.1719" gradientTransform="matrix(1 0 0 1 0 -170)">
	<stop  offset="0" style="stop-color:#000000;stop-opacity:0"/>
	<stop  offset="0.91" style="stop-color:#000000;stop-opacity:0.8"/>
	<stop  offset="1" style="stop-color:#000000"/>
</linearGradient>
<path class="st4" d="M593.6,301.6H357.5c-2.7,0-5-2.2-5-5l0,0c0-2.7,2.2-5,5-5h236.1c2.7,0,5,2.2,5,5l0,0
	C598.6,299.4,596.4,301.6,593.6,301.6z"/>
<linearGradient id="SVGID_3_" gradientUnits="userSpaceOnUse" x1="494.3831" y1="405.9334" x2="429.8386" y2="715.3934" gradientTransform="matrix(1 0 0 1 0 -170)">
	<stop  offset="0" style="stop-color:#000000;stop-opacity:0"/>
	<stop  offset="0.91" style="stop-color:#000000;stop-opacity:0.8"/>
	<stop  offset="1" style="stop-color:#000000"/>
</linearGradient>
<path class="st5" d="M593.6,331.1H357.5c-2.7,0-5-2.2-5-5l0,0c0-2.7,2.2-5,5-5h236.1c2.7,0,5,2.2,5,5l0,0
	C598.6,328.8,596.4,331.1,593.6,331.1z"/>
<linearGradient id="SVGID_4_" gradientUnits="userSpaceOnUse" x1="501.8854" y1="407.5082" x2="437.3409" y2="716.9682" gradientTransform="matrix(1 0 0 1 0 -170)">
	<stop  offset="0" style="stop-color:#000000;stop-opacity:0"/>
	<stop  offset="0.91" style="stop-color:#000000;stop-opacity:0.8"/>
	<stop  offset="1" style="stop-color:#000000"/>
</linearGradient>
<polygon class="st6" points="577.6,350.5 563.9,360.4 391.9,360.4 379,350.5 "/>
<polygon class="st7" points="475.3,424.6 331.3,531.9 622.3,531.9 "/>
<polygon class="st8" points="287.6,291.7 467.7,430.3 475.3,424.6 287,279.6 "/>
<polygon class="st8" points="481.2,429.4 675.5,289.5 675.5,280 475.3,425 "/>
<ellipse class="st9" cx="467.3" cy="533" rx="170.3" ry="13.2"/>
<path class="st10" d="M292.1,236.2c0,0,49.9,0.9,40.6,9.7c-9.2,8.8-43.9,0-43.9,0L292.1,236.2z"/>
<path class="st11" d="M200.4,128.6c0,0,20.1-3.6,27.1,12.7s21.4,62.6,21.4,62.6s38.5,25.5,45.5,24.6s19,0.9,16.8,8.5
	c-2.2,7.6-1.2,16.3-6.3,17.4s-13.1-9.1-19.2-4.2c-6.1,4.9-60.9-12.9-64.5-16.6c-3.5-3.7-32.8-83.6-32.8-83.6
	S189.6,128.3,200.4,128.6z"/>
<polygon class="st10" points="234,492.6 236.3,512 216.9,517 205.9,512 205.9,494.9 "/>
<polygon class="st10" points="181.9,505 184.2,524.4 164.8,529.5 153.7,524.4 153.7,507.3 "/>
<path class="st12" d="M235.9,280.6l8.8,31.9l12.9,64.6c0,0,3.7,15.7-3.7,34.6c-7.4,18.9-20.8,80.8-18,84.5
	c2.8,3.7-31.4,6.5-30.9,2.8c0.5-3.7,5.1-54.5,5.1-54.5s6.5-44.8,9.7-50.3c3.2-5.5-14.8-19.4-14.8-19.4s-4.6,53.1-11.5,57.7
	c-6.9,4.6-6,76.2-9.2,77.1c-3.2,0.9-26.8,4.6-29.5,0c-2.8-4.6,0-81.7,0-81.7s15.7-58.6,12.5-66.9c-3.2-8.3-1.4-43.9-1.4-43.9
	s-12-27.2-5.5-41.6L235.9,280.6z"/>
<path class="st10" d="M234.5,103.4c0,0-19.4,24-18.5,34.6c0.9,10.6-30.5-19.4-30.5-19.4s22.6-30.5,22.6-36.9
	C208.2,75.2,234.5,103.4,234.5,103.4z"/>
<circle class="st10" cx="234.3" cy="81.9" r="30.5"/>
<path class="st11" d="M157.5,263.4c-1.4,5.1-3.1,11-2.8,15.9c0.2,3.2,8.6,5.3,20.3,6.6c10.8,1.3,24.4,1.9,36.8,2.2
	c13,0.4,24.6,0.4,30.2,0.4c16.6,0,3.2-10.6-3.2-15.7c-6.5-5.1-5.1-77.1-4.6-86.3s-4.2-36-4.2-41.1c0-5.1-10.9-18.3-10.9-18.3
	s-2.5,7.3-12.7-2.4s-23.5-12.5-23.5-12.5c-10.2,3.7-27.2,44.3-28.2,51.2c-0.4,2.8-0.1,17.2,0.6,33.7c0.9,24,2.5,52.4,3.6,55.5
	C159.6,254.9,158.7,258.8,157.5,263.4z"/>
<polygon class="st10" points="206.8,290.3 210,301.9 197.6,314.8 193.4,296.8 "/>
<path class="st12" d="M210.9,506.9c0,0,9.7,11.1,17.1,3.7c7.4-7.4,6.9-12,8.3-12s22.2,18.5,22.2,18.5s35.6,8.3,16.2,14.3
	c-19.4,6-74.3,1.8-74.3,0c0-1.8-1.4-26.3,3.7-26.3L210.9,506.9z"/>
<path class="st12" d="M158.8,519.3c0,0,9.7,11.1,17.1,3.7s6.9-12,8.3-12s22.2,18.5,22.2,18.5s35.6,8.3,16.2,14.3
	c-19.4,6-74.3,1.8-74.3,0c0-1.8-1.4-26.3,3.7-26.3L158.8,519.3z"/>
<path class="st12" d="M200.1,106.2c-1,0.6-2.3,1.3-3.3,0.6c-3.7-9.1-6.4-18.6-8.2-28.3c-0.6-3.4-1.1-7.2,0.8-10.1
	c0.7-1.1,1.8-2.1,2.4-3.3c0.8-1.9,0.3-4.1,0.6-6.1c0.6-4.3,4.6-7.3,8.7-8.7s8.5-1.9,12.4-3.8c3.7-1.8,6.6-4.8,10.1-7.1
	c3.4-2.3,7.8-3.8,11.6-2.3c3.4,1.4,5.5,4.8,8.7,6.5c2.2,1.2,4.7,1.5,7.1,2c6.7,1.4,13,4.3,18.4,8.6c1.3,0.9,2.5,2.1,3.4,3.5
	c4.1,6.7-3.2,15.9,0,23.1l-7-5.5c-1.9-1.6-4-3-6.2-4c-2.3-0.9-5.1-1-7.2,0.3c-2.9,1.8-3.7,5.7-4.8,9c-1,3.3-3.3,7-6.8,6.9
	c-4.7-0.1-6.4-6.7-10.6-8.8c-2.8-1.4-6.2-0.5-8.6,1.5c-2.4,2-3.8,4.9-4.8,7.8c-0.6,1.8-1.3,3.9-2.4,5.4c-1.3,1.7-2.9,1.9-4.2,3.2
	C206.6,99.9,204.4,103.4,200.1,106.2z"/>
<path class="st9" d="M157.5,263.4c5.7,8.3,12.2,16.9,17.4,22.5c10.8,1.3,24.4,1.9,36.8,2.2c-2.2-3-5-5.5-8.1-7.5
	c-6-3.7-20.3-47.6-20.3-47.6s17.5-45.2,22.2-62.3C210,153.7,192,144,192,144c-8.3-6.9-22.6,9.2-22.6,9.2s-7.3,22-14.2,43.8
	c0.9,24,2.5,52.4,3.6,55.5C159.6,254.9,158.7,258.8,157.5,263.4z"/>
<path class="st11" d="M190.6,140.3c0,0,18,9.7,13.4,26.8c-4.6,17.1-22.2,62.3-22.2,62.3s14.3,43.9,20.3,47.6
	c6,3.7,14.3,12.5,7.8,17.1c-6.5,4.6-11.1,12-15.7,9.7c-4.6-2.3-4.6-15.2-12.5-15.2s-39.7-48-40.2-53.1c-0.5-5.1,26.3-85.9,26.3-85.9
	S182.3,133.4,190.6,140.3z"/>
<path class="st13" d="M587.5,251l-4.3-4.2c-5.2-5.1-13.6-5.1-18.9,0l-83.2,81.1l-83.2-81.1c-5.2-5.1-13.6-5.1-18.9,0l-4.3,4.2
	c-5.2,5.1-5.2,13.3,0,18.4l0,0l83.2,81.1l-83.2,81.1c-5.2,5.1-5.2,13.3,0,18.4l4.3,4.2c5.2,5.1,13.6,5.1,18.9,0l83.2-81.1l83.2,81.1
	c5.2,5.1,13.6,5.1,18.9,0l4.3-4.2c5.2-5.1,5.2-13.3,0-18.4l-83.2-81.1l83.2-81.1C592.7,264.3,592.7,256.1,587.5,251z"/>
</svg>
