<?xml version="1.0" encoding="utf-8"?>
<!-- Generator: Adobe Illustrator 22.1.0, SVG Export Plug-In . SVG Version: 6.00 Build 0)  -->
<svg version="1.1" id="aaafdec0-95c8-49a3-a8f8-64216c6da511"
	 xmlns="http://www.w3.org/2000/svg" xmlns:xlink="http://www.w3.org/1999/xlink" x="0px" y="0px" viewBox="0 0 1013.4 610.3"
	 style="enable-background:new 0 0 1013.4 610.3;" xml:space="preserve">
<style type="text/css">
	.st0{opacity:0.2;enable-background:new    ;}
	.st1{fill:#FFFFFF;}
	.st2{fill:#B54D2D;}
	.st3{fill:#EF5018;}
	.st4{opacity:0.61;fill:url(#SVGID_1_);enable-background:new    ;}
	.st5{fill:url(#SVGID_2_);}
	.st6{fill:url(#SVGID_3_);}
	.st7{fill:url(#SVGID_4_);}
	.st8{fill:url(#SVGID_5_);}
	.st9{opacity:5.000000e-02;fill:#000405;enable-background:new    ;}
	.st10{opacity:0.22;fill:#FFFFFF;enable-background:new    ;}
	.st11{fill:#57B894;}
	.st12{fill:#A0616A;}
	.st13{opacity:0.1;enable-background:new    ;}
	.st14{fill:#605D82;}
	.st15{fill:#535070;}
	.st16{fill:#3F3D56;}
</style>
<title>message sent</title>
<path class="st0" d="M104.1,607.2c-13.2,0.1-30.8-2.1-34.3-4.2c-2.7-1.6-3.8-7.5-4.1-10.2c-0.2,0-0.4,0-0.4,0s0.7,9.5,4.3,11.6
	s21.1,4.3,34.3,4.2c3.8,0,5.1-1.4,5.1-3.4C108.4,606.4,106.9,607.2,104.1,607.2z"/>
<ellipse class="st1" cx="292.8" cy="171.3" rx="41" ry="41.1"/>
<path class="st2" d="M658.4,278.9v260.6c0,13.7-11.1,24.9-24.9,24.9l0,0H243.9c-13.7,0-24.9-11.1-24.9-24.9l0,0V278.9
	c0-13.7,11.1-24.9,24.8-24.9h389.7C647.3,254,658.4,265.2,658.4,278.9L658.4,278.9z"/>
<path class="st3" d="M651.7,262H225.1l3.5-2.6c0.2-0.1,0.3-0.3,0.5-0.4L432,103.4l6.4-4.9l206.5,158.3L651.7,262z"/>
<path class="st3" d="M658.4,278.9l-5.2,3.8l0,0l-37.8,27.4L432,442.9L255.5,307L219,278.9l0.5-4.8c0.9-4.5,3-8.7,6.2-12.1
	c0.9-1,1.8-1.8,2.9-2.6c0.2-0.1,0.3-0.3,0.5-0.4c4.3-3.2,9.5-4.9,14.8-4.9h389.7c12.8,0,23.5,9.7,24.8,22.5
	C658.4,277.3,658.4,278.1,658.4,278.9z"/>
<linearGradient id="SVGID_1_" gradientUnits="userSpaceOnUse" x1="411.1445" y1="160.3414" x2="414.9745" y2="170.7514" gradientTransform="matrix(1 0 0 -1 -0.33 442)">
	<stop  offset="0.36" style="stop-color:#00272E"/>
	<stop  offset="0.75" style="stop-color:#3F80A1;stop-opacity:0.25"/>
	<stop  offset="1" style="stop-color:#69B9EB;stop-opacity:0"/>
</linearGradient>
<path class="st4" d="M414.1,276c-1,0.8-2,1.7-2.9,2.6h-0.5L414.1,276z"/>
<linearGradient id="SVGID_2_" gradientUnits="userSpaceOnUse" x1="485.3974" y1="279.8987" x2="364.3975" y2="709.8987" gradientTransform="matrix(1 0 0 1 0 -170)">
	<stop  offset="0" style="stop-color:#000000;stop-opacity:0"/>
	<stop  offset="0.91" style="stop-color:#000000;stop-opacity:0.8"/>
	<stop  offset="1" style="stop-color:#000000"/>
</linearGradient>
<path class="st5" d="M658,278.9l-5.2,3.8l0,0L615.1,310L431.6,442.9L255.1,307l-36.5-28.1l0.5-4.8c1.2-5.8,4.4-11.1,9.1-14.8
	l0.5-0.4l202.9-155.5l6.4-4.9l206.5,158.3c7.6,3.9,12.6,11.3,13.5,19.8C658,277.3,658,278.1,658,278.9z"/>
<path class="st1" d="M615.4,259.7v50.4l-67.7,49l-15.5,11.3L432,443l-94.3-72.6l-14.6-11.3l-67.6-52v-47.4c0-8.2,6.6-14.8,14.8-14.8
	l0,0h330.4C608.8,244.9,615.4,251.5,615.4,259.7z"/>
<linearGradient id="SVGID_3_" gradientUnits="userSpaceOnUse" x1="446.5185" y1="398.4152" x2="373.5185" y2="748.4152" gradientTransform="matrix(1 0 0 1 0 -170)">
	<stop  offset="0" style="stop-color:#000000;stop-opacity:0"/>
	<stop  offset="0.91" style="stop-color:#000000;stop-opacity:0.8"/>
	<stop  offset="1" style="stop-color:#000000"/>
</linearGradient>
<path class="st6" d="M565.4,304.1h-267c-3.1,0-5.6-2.5-5.6-5.6l0,0c0-3.1,2.5-5.6,5.6-5.6h267c3.1,0,5.6,2.5,5.6,5.6l0,0
	C571,301.6,568.5,304.1,565.4,304.1z"/>
<linearGradient id="SVGID_4_" gradientUnits="userSpaceOnUse" x1="453.1758" y1="399.7967" x2="380.1758" y2="749.7968" gradientTransform="matrix(1 0 0 1 0 -170)">
	<stop  offset="0" style="stop-color:#000000;stop-opacity:0"/>
	<stop  offset="0.91" style="stop-color:#000000;stop-opacity:0.8"/>
	<stop  offset="1" style="stop-color:#000000"/>
</linearGradient>
<path class="st7" d="M565.4,337.4h-267c-3.1,0-5.6-2.5-5.6-5.6l0,0c0-3.1,2.5-5.6,5.6-5.6h267c3.1,0,5.6,2.5,5.6,5.6l0,0
	C571,334.9,568.5,337.4,565.4,337.4z"/>
<linearGradient id="SVGID_5_" gradientUnits="userSpaceOnUse" x1="461.6609" y1="401.5778" x2="388.6609" y2="751.5779" gradientTransform="matrix(1 0 0 1 0 -170)">
	<stop  offset="0" style="stop-color:#000000;stop-opacity:0"/>
	<stop  offset="0.91" style="stop-color:#000000;stop-opacity:0.8"/>
	<stop  offset="1" style="stop-color:#000000"/>
</linearGradient>
<polygon class="st8" points="547.3,359.4 531.8,370.6 337.3,370.6 322.7,359.4 "/>
<polygon class="st9" points="433.4,443.2 270.5,564.6 599.6,564.6 "/>
<polygon class="st10" points="219.7,293.5 423.4,450.2 432,443.8 219,279.8 "/>
<polygon class="st10" points="438.3,448.6 658,290.4 658,279.6 431.6,443.7 "/>
<path class="st11" d="M292.8,122.3c-27.1,0-49,21.9-49,49s21.9,49,49,49s49-21.9,49-49C341.7,144.3,319.8,122.4,292.8,122.3z
	 M282.7,197.4l-25.1-25.1l7-7l18.1,18.1l38.2-38.2l7,7L282.7,197.4L282.7,197.4z"/>
<path class="st12" d="M696.8,126.5c-0.6,5.4-4.7,9.7-6.2,14.8c-2.3,7.8,1.7,16.1,7,22.2c8.8,9.8,21.1,15.6,34.2,16.3
	c1.9,0.2,3.8,0,5.7-0.6c1.6-0.7,3.1-1.7,4.3-2.9c4.1-4.1,6.2-9.7,7.1-15.4s0.5-11.5,0.2-17.2c0-1.2-0.2-2.4-0.6-3.5
	c-0.6-1.1-1.3-2-2.2-2.7c-2.9-2.7-6.1-5-9.6-7c-1.6-0.7-2.9-1.8-4-3.1c-0.7-1.1-1.1-2.4-1.2-3.7l-1.1-5.4c-0.2-1.6-0.7-3.1-1.6-4.4
	c-1.9-2.5-5.5-2.9-8.6-3l-11.5-0.5c-3.6-0.1-8.3-1.2-11.8-0.5c-3.3,0.7-2.2,3.7-1.6,6.4C696.2,119.7,696.7,123.1,696.8,126.5z"/>
<path class="st13" d="M696.8,126.5c-0.6,5.4-4.7,9.7-6.2,14.8c-2.3,7.8,1.7,16.1,7,22.2c8.8,9.8,21.1,15.6,34.2,16.3
	c1.9,0.2,3.8,0,5.7-0.6c1.6-0.7,3.1-1.7,4.3-2.9c4.1-4.1,6.2-9.7,7.1-15.4s0.5-11.5,0.2-17.2c0-1.2-0.2-2.4-0.6-3.5
	c-0.6-1.1-1.3-2-2.2-2.7c-2.9-2.7-6.1-5-9.6-7c-1.6-0.7-2.9-1.8-4-3.1c-0.7-1.1-1.1-2.4-1.2-3.7l-1.1-5.4c-0.2-1.6-0.7-3.1-1.6-4.4
	c-1.9-2.5-5.5-2.9-8.6-3l-11.5-0.5c-3.6-0.1-8.3-1.2-11.8-0.5c-3.3,0.7-2.2,3.7-1.6,6.4C696.2,119.7,696.7,123.1,696.8,126.5z"/>
<path class="st13" d="M760,463.2c-0.9,4.8-1.9,9.5-3.1,14.3c-3.3,13.1-8.2,25.9-9.8,39.3c0,0.4-0.1,0.8-0.1,1.2
	c-10.2-14.6-18.8-30.3-28.8-45.1c0.7-2.1,1.5-4.2,2.1-6.4c0.8-3.5,1.4-7,1.7-10.6c1.3-11.3,2.9-22.5,4.3-33.8l0.1-0.6
	c0.6,2.4,1.4,4.7,2.5,6.9c6.7,13.6,22.6,20.5,30.4,33.5C759.5,462.4,759.8,462.8,760,463.2z"/>
<path class="st14" d="M677,343.5c0.3,10.9,2.1,21.7,3.8,32.5l3.6,22.3c2,12.2,4,24.6,9.8,35.5c4.3,8.2,10.5,15.1,16.1,22.4
	c13.8,18,24.2,38.4,37.3,56.9c3.8,5.4,9.3,11.2,15.7,10.1c4.3-0.7,7.4-4.3,10.7-7c4-3.2,8.7-5.6,11.8-9.6s3.7-10.8-0.5-13.7
	c-1.5-0.8-3.1-1.5-4.8-2c-6.5-2.5-10.8-8.9-13.4-15.3s-4.3-13.4-7.9-19.4c-7.8-13-23.7-19.9-30.4-33.5c-3.8-7.6-4.1-16.4-4.4-24.9
	l-0.7-21.7c-0.1-2.4-0.1-4.8,0.8-7c2.6-5.8,10.3-6.3,16.6-7c7.1-0.8,14-3,20.3-6.4c3.6-1.9,7.1-4.4,9.1-8.1c1.8-3.3,2-7.2,2.2-10.9
	l2.2-39.3c0.2-3.4,0.4-6.9-0.8-10c-3-8-13-10.5-21.5-10.2c-15.8,0.7-30.4,7.5-45.3,12.1c-3.7,1.2-7.4,2.1-11.2,2.9
	c-3.3,0.7-7.4,0.4-10.6,1.5c-5.7,1.9-5.5,14.3-6.3,19.4C677.5,323.2,676.8,333.3,677,343.5z"/>
<path class="st15" d="M761.3,524.9c1.4,1.4,1.8,3.5,2.2,5.4c2,10.8,3.1,21.7,3.1,32.7c-0.1,1,0.1,2.1,0.6,3c0.4,0.5,0.9,1,1.5,1.2
	c4,1.9,8.7-0.8,12-3.7c6.2-5.4,11.5-12.8,11.8-21c-0.1-2.1,0-4.3,0.2-6.4c0.5-3.1,2.4-5.8,4-8.5c2.7-4.6,4.9-9.6,6.5-14.7
	c0.6-1.9,1-4.3-0.5-5.7c-0.5-0.4-1.1-0.7-1.8-0.9l-18.2-6.7c-1.6-0.6-5.5,9.5-6.1,10.6c-1.5,2.7-3,4.2-6.1,4.8
	c-3.1,0.6-6.8-0.3-9.7,1.3C756,518.9,758.5,522.1,761.3,524.9z"/>
<path class="st15" d="M730.8,531.1c-0.3-0.7-0.8-1.3-1.4-1.8c-0.8-0.5-1.8-0.9-2.8-0.9c-3.5-0.6-7.6-1-10,1.6
	c-2.2,2.4-1.9,6.3-3.7,9c-0.6,0.9-1.4,1.6-1.9,2.5c-0.6,1.4-0.9,2.9-0.8,4.4c-0.1,4.2-0.2,8.4,0.1,12.6c0.2,3.5,0.8,7.2,3,9.9
	c3.5,4.4,9.9,5,15.5,5.3l4.6,0.2c1.3,0.2,2.5,0,3.7-0.3c1.5-0.7,2.7-2,3.2-3.6c2.4-5.9-1.4-12.3-3.7-18.2
	C734,545.1,734.5,537.5,730.8,531.1z"/>
<path class="st16" d="M695.5,96.4c-0.1-0.6,0-1.2,0.3-1.8c0.7-1.2,2.4-0.9,3.7-0.5c5.3,1.3,10.9,0.1,16.3,0.4s11.6,3,12.7,8.4
	c4-2.8,7.4-6.3,10.1-10.3c1.5-2.3,2.8-4.9,2.6-7.6c-0.3-3.9-3.6-6.8-6.6-9.3l-9.1-7.4c-1.2-1.1-2.6-2-4.1-2.6
	c-2.1-0.7-4.4-0.4-6.6-0.4c-6.6,0-13.6-3-19.5,0c-2.5,1.3-4.3,3.4-6.1,5.5l-8.1,9.6c-0.6,0.6-1.1,1.4-1.3,2.2
	c-0.2,1.2,0.4,2.3,0.6,3.5c0.4,2.1-0.5,4.4,0.2,6.5c1.2,3.4,5.3,3.9,7.9,5.9c0.9,0.7,2.4,3.2,3.6,3.2
	C694,101.6,695.4,97.9,695.5,96.4z"/>
<circle class="st12" cx="709.2" cy="98.7" r="25.9"/>
<path class="st16" d="M715.3,155.4c-1.8-5.2-6.8-8.6-12.2-8.4c-0.8,0.1-1.6,0-2.3-0.3c-0.4-0.3-0.7-0.7-0.9-1.2
	c-1.6-2.8-2.8-5.8-3.8-8.9c-0.4-1.4-1-3-2.4-3.3c-1.2-0.2-2.3,0.4-3,1.3c-0.7,0.9-1.4,1.9-2.2,2.7c-3.3,2.9-9,0.3-12.5,2.9
	c-0.6,0.4-1,1-1.6,1.4c-0.6,0.4-1.2,0.6-1.9,0.8c-6.7,2.2-13.2,4.7-19.6,7.7c2.3,13.9,4.7,28,10.1,41c2.6,6.2,5.5,12.2,7.5,18.6
	c4.6,14.1,4.8,29.2,4.8,44c0,10.1,0,20.5-3.3,30.1c-0.9,2.1-1.5,4.3-1.9,6.6c-0.2,2.3,0.5,4.8,2.3,6.2c1.1,0.7,2.3,1.1,3.6,1.3
	c5.7,0.8,11.4-0.7,17-2c15-3.5,30.3-5.5,45.6-7.4l25.6-3.3c1.8-0.1,3.6-0.6,5.3-1.4c4.7-2.6,5.1-9.6,2.2-14.1
	c-1.4-2.1-3.4-3.9-4.5-6.2s-1.3-5.5,0.7-7c4.1-3.2,2.9-9.2,3.1-14.4c0.5-14.6,0.5-29.1-0.2-43.7c-0.2-3-0.3-6-0.1-9.1
	c0.5-5.1,1.4-10.2,2.8-15.1l7.8-30.6c-2-3.2-5.9-5.2-9.6-6.2s-7.5-1.2-11.2-2.3c-7.4-2.3-14.1-8.2-21.8-7.6c-0.6,0-1.2,0.2-1.7,0.4
	c-1.8,1-1.5,3.5-1.6,5.5c-0.2,4.4-3.5,8.2-7.1,10.8s-7.7,4.5-11.1,7.5C716,152.6,715.3,154,715.3,155.4z"/>
<path class="st12" d="M612.5,184.5c-1.7,1.1-3.5,2.1-5.5,2.8c-1.9,0.6-3.6,1.4-5.2,2.5c-0.7,0.6-1.3,1.4-1.8,2.2
	c-2.7,4.8-1,10.9,3.8,13.6c1.6,0.9,3.5,1.4,5.4,1.3c2.4-0.3,4.7-1,6.8-2l18.3-7.9c3.1-1.3,6.4-2.9,7.9-6c0.2-0.3,0.2-0.6,0.2-0.9
	c-0.1-0.3-0.4-0.6-0.8-0.8c-4.1-2.7-7.7-6.1-10.6-10c-0.8-1-1.7-3.4-2.7-4C624.4,173,615.6,182.5,612.5,184.5z"/>
<path class="st12" d="M808,178l6.7,7.7c1.4,1.7,2.9,3.3,4.2,5.1c3.2,4.5,5.8,9.4,7.7,14.5c1.5,3.8,2.7,7.9,2.2,12
	c-0.3,2.1-0.9,4.1-1.7,6.1c-1.2,3.8-2.8,7.5-4.6,11c-1.5,2.7-3.2,5.3-5.2,7.7c-5.2,6.9-10.9,13.5-17.1,19.6c-2.3,2.3-3.3,6-4.3,9.1
	c-1.9,5.7-6.3,10.1-10.5,14.3c-1.4,1.4-2.9,2.7-4.5,3.9c-2.4,1.6-5.3,2.4-8.2,2.3c-1.3,0-2.5-0.3-3.7-0.8c-2.9-1.4-4.4-4.8-4.7-8
	c-0.3-2.9,0.2-5.9,1.4-8.5c3.9-8.6,13.8-12.3,20.8-18.5c4.1-3.7,7.3-8.3,10.4-12.8c2.1-2.8,3.9-5.9,5.2-9.2c1.6-4.2,1-9.1,2.3-13.4
	c0.6-1.8,1.6-3.4,2.2-5.2s0.8-3.9-0.3-5.4c-0.8-1-1.9-1.7-3.1-2.2c-4.5-2.3-9.5-5.2-10.4-10.2c-0.3-2.7,0.4-5.5,2-7.8
	c1.6-2.2,3.5-4.2,5.7-5.9C802.8,181.7,806.1,179.7,808,178z"/>
<path class="st12" d="M612.9,194.4c-1.4-2.1-3.1-4.2-5.9-5.3c-2.7-0.9-5.8-0.9-8.5,0c-2.7,0.9-5.2,2-7.5,3.4l-6.7,3.7
	c-1.5,0.8-2.9,1.7-4,2.8c-1.1,1.3-1.8,2.8-2.1,4.3c-1.2,3.5-1.5,7.1-1.1,10.7c1.1,5.7,5.6,10.7,10.6,15.1c3.1,2.7,7,5.5,11.8,5.6
	c2.1,0.1,4.3-0.6,5.2-2c0.3-0.6,0.5-1.2,0.5-1.8c0.5-6.4-2.5-12.6-6-18.5c-1.1-1.5-1.8-3.2-1.9-5c0-0.3,0.1-0.6,0.3-0.8
	c0.3-0.2,0.7-0.4,1.1-0.4c4.8-0.7,13.1,2.1,16.5-1.9C617.5,201.7,614.5,196.8,612.9,194.4z"/>
<path class="st16" d="M694.1,88.2c-0.1-0.6,0-1.2,0.3-1.8c0.7-1.2,2.4-0.9,3.7-0.5c5.3,1.3,10.9,0.1,16.3,0.4s11.6,3,12.7,8.4
	c4-2.8,7.4-6.3,10.1-10.3c1.5-2.3,2.8-4.9,2.6-7.6c-0.3-3.9-3.6-6.8-6.6-9.3l-9.1-7.4c-1.2-1.1-2.6-2-4.1-2.6
	c-2.1-0.7-4.4-0.4-6.6-0.4c-6.6,0-13.6-3-19.5,0c-2.5,1.3-4.3,3.4-6.1,5.5l-8.1,9.6c-0.6,0.6-1.1,1.4-1.3,2.2
	c-0.2,1.2,0.4,2.3,0.6,3.5c0.4,2.1-0.5,4.4,0.2,6.5c1.2,3.4,5.3,3.9,7.9,5.9c0.9,0.7,2.4,3.2,3.6,3.2
	C692.6,93.4,694,89.8,694.1,88.2z"/>
<path class="st16" d="M639,159.3c-1,0.7-2,1.5-2.7,2.5c-1,1.4-1.1,3.3-2,4.8c-1.7,3.2-5.8,4.4-8.4,7.1c-0.4,0.4-0.7,0.8-0.8,1.4
	c0,0.7,0.2,1.4,0.7,2l12.3,19.3c4.1,0.4,8-2.2,12.1-1.9c1.5,0.1,3.1,0.7,4.6,0.2c1-0.5,2-1.1,2.9-1.8c2.4-1.5,5.7-1.7,7.7-3.8
	c2-2,2.2-5,2.2-7.8c0-2.4-0.2-4.8-0.7-7.2c-1.8-7.4-7.5-13.1-11-19.7c-1.7-3.2-2.7-5.1-6.3-2.9C645.9,153.8,642.5,156.7,639,159.3z"
	/>
<path class="st16" d="M788.4,149.5c2.3,1.5,4.4,3.3,6.2,5.4c1.9,2.4,2.9,5.4,4.7,7.8c1.7,2.4,4.1,4.3,6.1,6.5c3,3.3,5,7.4,7,11.5
	c-4.9,6.4-10.2,12.4-15.9,18c-0.6,0.7-1.5,1.3-2.4,1.6c-1.3,0.1-2.6-0.4-3.4-1.4c-0.9-0.9-1.5-2.1-2.4-3c-2-2.1-4.7-3.3-7.5-3.6
	c-2.8-0.3-5.7-0.3-8.5-0.1c-0.6,0.1-1.3,0-1.8-0.3c-0.4-0.3-0.8-0.7-1-1.1c-3.3-5.7-2.3-12.8-1.1-19.2l2.7-14.8
	c0.4-2.8,1.1-5.6,2.2-8.2c1-2.2,3.3-5.9,6.1-5.2C782.3,143.7,786,147.8,788.4,149.5z"/>
<path class="st14" d="M770.7,363.9c-1.6,17.9-3.3,35.7-4.9,53.6c-1.3,14.1-2.6,28.2-5.1,42.1c-0.9,4.8-1.9,9.5-3.1,14.3
	c-3.3,13.1-8.2,25.9-9.8,39.3c0,0.4-0.1,0.8-0.1,1.2c-0.2,3-0.7,5.9-1.7,8.7c-0.8,2-2,3.9-2.8,5.9c-1.7,4.1-1.9,8.5-2.1,12.9
	c-5.9-3.3-12.4-5.6-19.2-6.6c-3.3-0.5-6.9-0.8-9.1-3.3c-2.5-2.7-2.2-6.8-1.8-10.4c1.3-11.2,2.6-22.4,3.9-33.6
	c0.4-4.8,1.2-9.6,2.4-14.3c0.4-1.6,1-3.1,1.5-4.6c0.7-2.1,1.5-4.2,2.1-6.4c0.8-3.5,1.4-7,1.7-10.6c1.3-11.3,2.9-22.5,4.3-33.8
	l0.1-0.6c2.1-17.1,3.7-34.2,3.2-51.4c-0.1-2.5-0.2-5.1-0.3-7.6c-0.2-3.7-0.6-5.7,2.5-8c3.4-2.6,7.8-4.3,11.7-6
	c2.1-0.9,25-9,25.6-7.3c1.1,3.8,1.6,7.7,1.7,11.7C771.5,354.2,771.2,359.1,770.7,363.9z"/>
</svg>
