<?xml version="1.0" encoding="utf-8"?>
<!-- Generator: Adobe Illustrator 22.1.0, SVG Export Plug-In . SVG Version: 6.00 Build 0)  -->
<svg version="1.1" id="_x32_0c5e55c-796e-458b-93a1-d41b60cf5ace"
	 xmlns="http://www.w3.org/2000/svg" xmlns:xlink="http://www.w3.org/1999/xlink" x="0px" y="0px" viewBox="0 0 990 758.2"
	 style="enable-background:new 0 0 990 758.2;" xml:space="preserve">
<style type="text/css">
	.st0{opacity:0.2;fill:#1F6DF1;enable-background:new    ;}
	.st1{opacity:0.7;}
	.st2{fill:url(#SVGID_1_);}
	.st3{opacity:0.1;}
	.st4{fill:url(#SVGID_2_);}
	.st5{fill:url(#SVGID_3_);}
	.st6{fill:url(#SVGID_4_);}
	.st7{fill:url(#SVGID_5_);}
	.st8{fill:url(#SVGID_6_);}
	.st9{fill:url(#SVGID_7_);}
	.st10{fill:url(#SVGID_8_);}
	.st11{fill:url(#SVGID_9_);}
	.st12{fill:url(#SVGID_10_);}
	.st13{fill:url(#SVGID_11_);}
	.st14{opacity:0.1;fill:url(#SVGID_12_);enable-background:new    ;}
	.st15{opacity:0.1;fill:url(#SVGID_13_);enable-background:new    ;}
	.st16{opacity:0.1;fill:url(#SVGID_14_);enable-background:new    ;}
	.st17{fill:url(#SVGID_15_);}
	.st18{fill:url(#SVGID_16_);}
	.st19{fill:url(#SVGID_17_);}
	.st20{fill:url(#SVGID_18_);}
	.st21{fill:url(#SVGID_19_);}
	.st22{fill:url(#SVGID_20_);}
	.st23{fill:#535461;}
	.st24{opacity:0.1;enable-background:new    ;}
	.st25{fill:#E0E0E0;}
	.st26{fill:#FDA57D;}
	.st27{fill:#4D8AF0;}
	.st28{fill:#72351C;}
	.st29{fill:url(#SVGID_21_);}
	.st30{fill:#FDB797;}
	.st31{fill:#3AD29F;}
	.st32{fill:#161719;}
	.st33{fill:#252A62;}
	.st34{fill:url(#SVGID_22_);}
	.st35{fill:url(#SVGID_23_);}
	.st36{fill:#3E3F49;}
</style>
<title>co-workers</title>
<path class="st0" d="M872,640.3h-93.9v-50.7H872V640.3z M782.1,636.5H868v-43.1h-85.9V636.5z"/>
<path class="st0" d="M189.9,640.3H96.1v-50.7h93.9V640.3z M100,636.5h85.9v-43.1H100V636.5z"/>
<g class="st1">
	
		<linearGradient id="SVGID_1_" gradientUnits="userSpaceOnUse" x1="245.484" y1="37.3005" x2="411.7797" y2="37.3005" gradientTransform="matrix(1 0 0 -1 -105 689.11)">
		<stop  offset="0" style="stop-color:#808080;stop-opacity:0.25"/>
		<stop  offset="0.54" style="stop-color:#808080;stop-opacity:0.12"/>
		<stop  offset="1" style="stop-color:#808080;stop-opacity:0.1"/>
	</linearGradient>
	<path class="st2" d="M270.7,562.8c0,0-114.5-40.2-130.2,16.4l43.9,107.1l4.7,68.5h95.7v-58.1c0,0-14.1-58,22-93.7L270.7,562.8z"/>
	<g class="st3">
		
			<linearGradient id="SVGID_2_" gradientUnits="userSpaceOnUse" x1="294.4385" y1="263.9742" x2="524.5903" y2="263.9742" gradientTransform="matrix(1 0 0 -1 -105 689.11)">
			<stop  offset="0" style="stop-color:#808080;stop-opacity:0.25"/>
			<stop  offset="0.54" style="stop-color:#808080;stop-opacity:0.12"/>
			<stop  offset="1" style="stop-color:#808080;stop-opacity:0.1"/>
		</linearGradient>
		<path class="st4" d="M289.9,244.1c-4.9-1.5-10.7-2.9-14.7,0.2c-2.3,1.8-3.3,4.7-5.1,6.9c-5.9,7.5-17.9,6.1-27.4,8.7
			c-13.9,3.9-22.5,17.1-27.4,30.1c-21.8,57,2.5,122.3-16.4,180.2c-5.6,17.1-14.7,36-5.7,51.7c3,5.2,7.9,9.6,9.4,15.4
			c2,7.8-1.9,18.1,5,22.9c2.1,1.5,4.9,2,7.4,2.5c15.4,3.9,27.1,15.4,38.9,25.7c11.8,10.2,25.9,20.2,41.9,19.5
			c5.2-0.4,10.2-1.4,15.2-2.9l79.2-21.1c7.9-2.1,16.6-4.7,21.2-11.2c2.8-4,3.7-8.9,4.4-13.6c2.7-18,4-36.2,3.9-54.4
			c0-6-0.3-12.2-2.6-17.7c-2.6-6.5-7.9-11.6-11.8-17.5c-7.4-11.4-9.4-25.1-11.3-38.4c-2.9-21.1-5.8-42.7-1.8-63.7
			c1.7-9,4.7-17.7,6.7-26.7c3.2-14.6,3.7-29.6,1.5-44.3c-1.9-12.2-5.8-24.6-14.5-33.8c-5.7-6.1-13.5-10.2-21.9-11.4
			c-10.7-1.3-16,4.6-25.6,6.8C324.1,261.3,303.4,248.4,289.9,244.1z"/>
	</g>
	
		<linearGradient id="SVGID_3_" gradientUnits="userSpaceOnUse" x1="294.4385" y1="266.9645" x2="524.5903" y2="266.9645" gradientTransform="matrix(1 0 0 -1 -105 689.11)">
		<stop  offset="0" style="stop-color:#808080;stop-opacity:0.25"/>
		<stop  offset="0.54" style="stop-color:#808080;stop-opacity:0.12"/>
		<stop  offset="1" style="stop-color:#808080;stop-opacity:0.1"/>
	</linearGradient>
	<path class="st5" d="M289.9,241c-4.9-1.5-10.7-2.9-14.7,0.2c-2.3,1.8-3.3,4.7-5.1,6.9c-5.9,7.5-17.9,6.1-27.4,8.7
		c-13.9,3.9-22.5,17.1-27.4,30.1c-21.8,57,2.5,122.3-16.4,180.2c-5.6,17.1-14.7,36-5.7,51.7c3,5.2,7.9,9.6,9.4,15.4
		c2,7.8-1.9,18.1,5,22.9c2.1,1.5,4.9,2,7.4,2.5c15.4,3.9,27.1,15.4,38.9,25.7c11.8,10.2,25.9,20.3,41.9,19.6
		c5.2-0.4,10.2-1.4,15.2-2.9l79.2-21.1c7.9-2.1,16.6-4.7,21.2-11.2c2.8-4,3.7-8.9,4.4-13.6c2.7-18,4-36.2,3.9-54.4
		c0-6-0.3-12.2-2.6-17.7c-2.6-6.5-7.9-11.6-11.8-17.5c-7.4-11.4-9.4-25.1-11.3-38.4c-2.9-21.1-5.8-42.7-1.8-63.7
		c1.7-9,4.7-17.7,6.7-26.7c3.2-14.6,3.7-29.6,1.5-44.3c-1.9-12.2-5.8-24.6-14.5-33.8c-5.7-6.1-13.5-10.2-21.9-11.4
		c-10.7-1.3-16,4.6-25.6,6.8C324.1,258.3,303.4,245.4,289.9,241z"/>
	
		<linearGradient id="SVGID_4_" gradientUnits="userSpaceOnUse" x1="352.1735" y1="486.4859" x2="469.7718" y2="486.4859" gradientTransform="matrix(1 0 0 -1 -105 689.11)">
		<stop  offset="0" style="stop-color:#808080;stop-opacity:0.25"/>
		<stop  offset="0.54" style="stop-color:#808080;stop-opacity:0.12"/>
		<stop  offset="1" style="stop-color:#808080;stop-opacity:0.1"/>
	</linearGradient>
	<path class="st6" d="M267.6,128.5c0,0,1.6,56.5-17.3,55c-18.8-1.5,53.3,93.7,53.3,93.7l61.2-31.2c0,0-36.1-55-10.9-89.2
		S267.6,128.5,267.6,128.5z"/>
	<g class="st3">
		
			<linearGradient id="SVGID_5_" gradientUnits="userSpaceOnUse" x1="196.5873" y1="243.6911" x2="399.1688" y2="243.6911" gradientTransform="matrix(1 0 0 -1 -105 689.11)">
			<stop  offset="0" style="stop-color:#808080;stop-opacity:0.25"/>
			<stop  offset="0.54" style="stop-color:#808080;stop-opacity:0.12"/>
			<stop  offset="1" style="stop-color:#808080;stop-opacity:0.1"/>
		</linearGradient>
		<path class="st7" d="M162.4,608.9c0,0-12.5,81.8-43.9,59.5c-31.4-22.3-26.7-59.5-26.7-59.5s61.2-157.7,58.1-181.5
			c-3.1-23.8,104.4-208.8,104.4-208.8l39.8,304C294.2,522.6,175,564.3,162.4,608.9z"/>
	</g>
	
		<linearGradient id="SVGID_6_" gradientUnits="userSpaceOnUse" x1="193.4544" y1="243.6911" x2="396.0226" y2="243.6911" gradientTransform="matrix(1 0 0 -1 -105 689.11)">
		<stop  offset="0" style="stop-color:#808080;stop-opacity:0.25"/>
		<stop  offset="0.54" style="stop-color:#808080;stop-opacity:0.12"/>
		<stop  offset="1" style="stop-color:#808080;stop-opacity:0.1"/>
	</linearGradient>
	<path class="st8" d="M159.3,608.9c0,0-12.5,81.8-43.9,59.5c-31.4-22.3-26.7-59.5-26.7-59.5s61.2-157.7,58-181.5
		c-3.1-23.8,104.4-208.8,104.4-208.8l39.8,304C291,522.6,171.9,564.3,159.3,608.9z"/>
	
		<linearGradient id="SVGID_7_" gradientUnits="userSpaceOnUse" x1="187.4259" y1="321.9391" x2="375.6917" y2="321.9391" gradientTransform="matrix(1 0 0 -1 -105 689.11)">
		<stop  offset="0" style="stop-color:#808080;stop-opacity:0.25"/>
		<stop  offset="0.54" style="stop-color:#808080;stop-opacity:0.12"/>
		<stop  offset="1" style="stop-color:#808080;stop-opacity:0.1"/>
	</linearGradient>
	<path class="st9" d="M270.7,164.2c0,0-61.2,40.1-84.7,38.7l-18.3,4.8c-36.9,9.5-64.9,38.2-72.4,74.1l-0.3,1.4
		c-9.4,47.6-12.5,178.5-12.5,178.5s1.6,34.2,17.3,43.1l100.5,65.4c0,0-3.1-71.4,34.5-78.8s-9.4-3-9.4-3l-69-38.7
		c0,0,1.6-58,20.4-77.3c18.8-19.3,84.7-120.4,84.7-120.4l-18.8-62.5L270.7,164.2z"/>
	<g class="st3">
		
			<linearGradient id="SVGID_8_" gradientUnits="userSpaceOnUse" x1="434.0353" y1="306.3138" x2="637.6406" y2="306.3138" gradientTransform="matrix(1 0 0 -1 -105 689.11)">
			<stop  offset="0" style="stop-color:#808080;stop-opacity:0.25"/>
			<stop  offset="0.54" style="stop-color:#808080;stop-opacity:0.12"/>
			<stop  offset="1" style="stop-color:#808080;stop-opacity:0.1"/>
		</linearGradient>
		<path class="st10" d="M338.1,202.8c0,0,38.5,9.7,65.5,14.4c8.5,1.5,15.8,6.7,19.6,14.2c8.1,16.1,20.6,45.3,18.4,69.6l23.5,87.8
			l67.4,77.3l-61.2,26.8l-69-72.9l56.5,138.3l-105.1,4.5c0,0-31.4-223.1-23.5-260.3L338.1,202.8z"/>
	</g>
	
		<linearGradient id="SVGID_9_" gradientUnits="userSpaceOnUse" x1="437.1815" y1="306.3138" x2="640.7735" y2="306.3138" gradientTransform="matrix(1 0 0 -1 -105 689.11)">
		<stop  offset="0" style="stop-color:#808080;stop-opacity:0.25"/>
		<stop  offset="0.54" style="stop-color:#808080;stop-opacity:0.12"/>
		<stop  offset="1" style="stop-color:#808080;stop-opacity:0.1"/>
	</linearGradient>
	<path class="st11" d="M341.3,202.8c0,0,38.5,9.7,65.5,14.4c8.5,1.5,15.8,6.7,19.6,14.2c8.1,16.1,20.6,45.3,18.4,69.6l23.5,87.8
		l67.4,77.3l-61.2,26.8l-69-72.9l56.5,138.3L357,562.8c0,0-31.4-223.1-23.5-260.3L341.3,202.8z"/>
	
		<linearGradient id="SVGID_10_" gradientUnits="userSpaceOnUse" x1="232.5283" y1="541.6976" x2="287.1627" y2="541.6976" gradientTransform="matrix(1 0 0 -1 0 760)">
		<stop  offset="0" style="stop-color:#808080;stop-opacity:0.25"/>
		<stop  offset="0.54" style="stop-color:#808080;stop-opacity:0.12"/>
		<stop  offset="1" style="stop-color:#808080;stop-opacity:0.1"/>
	</linearGradient>
	<polygon class="st12" points="265.5,159.4 287.2,260.1 251.9,277.2 232.5,186.5 	"/>
	
		<linearGradient id="SVGID_11_" gradientUnits="userSpaceOnUse" x1="324.8105" y1="522.5922" x2="362.4716" y2="522.5922" gradientTransform="matrix(1 0 0 -1 0 760)">
		<stop  offset="0" style="stop-color:#808080;stop-opacity:0.25"/>
		<stop  offset="0.54" style="stop-color:#808080;stop-opacity:0.12"/>
		<stop  offset="1" style="stop-color:#808080;stop-opacity:0.1"/>
	</linearGradient>
	<polygon class="st13" points="324.8,267.5 341.3,202.8 362.5,240.8 351.5,272 	"/>
	
		<linearGradient id="SVGID_12_" gradientUnits="userSpaceOnUse" x1="489.4285" y1="347.9601" x2="503.5465" y2="347.9601" gradientTransform="matrix(1 0 0 -1 -105 689.11)">
		<stop  offset="0" style="stop-color:#808080;stop-opacity:0.25"/>
		<stop  offset="0.54" style="stop-color:#808080;stop-opacity:0.12"/>
		<stop  offset="1" style="stop-color:#808080;stop-opacity:0.1"/>
	</linearGradient>
	<path class="st14" d="M384.4,286.9c0,0,0,101.1,14.1,108.6"/>
	
		<linearGradient id="SVGID_13_" gradientUnits="userSpaceOnUse" x1="262.0575" y1="321.9454" x2="287.0447" y2="321.9454" gradientTransform="matrix(1 0 0 -1 -105 689.11)">
		<stop  offset="0" style="stop-color:#808080;stop-opacity:0.25"/>
		<stop  offset="0.54" style="stop-color:#808080;stop-opacity:0.12"/>
		<stop  offset="1" style="stop-color:#808080;stop-opacity:0.1"/>
	</linearGradient>
	<path class="st15" d="M182,312.1c0,0-32.6,99.6-23.3,110"/>
	
		<linearGradient id="SVGID_14_" gradientUnits="userSpaceOnUse" x1="280.7789" y1="220.384" x2="352.1618" y2="220.384" gradientTransform="matrix(1 0 0 -1 -105 689.11)">
		<stop  offset="0" style="stop-color:#808080;stop-opacity:0.25"/>
		<stop  offset="0.54" style="stop-color:#808080;stop-opacity:0.12"/>
		<stop  offset="1" style="stop-color:#808080;stop-opacity:0.1"/>
	</linearGradient>
	<path class="st16" d="M175.8,449c0,0,62.8,38.9,71.4,39.5"/>
	<g class="st3">
		
			<linearGradient id="SVGID_15_" gradientUnits="userSpaceOnUse" x1="373.5106" y1="524.3909" x2="464.0841" y2="524.3909" gradientTransform="matrix(1 0 0 -1 -105 689.11)">
			<stop  offset="0" style="stop-color:#808080;stop-opacity:0.25"/>
			<stop  offset="0.54" style="stop-color:#808080;stop-opacity:0.12"/>
			<stop  offset="1" style="stop-color:#808080;stop-opacity:0.1"/>
		</linearGradient>
		<path class="st17" d="M269.1,134.4c0,0,0.2,8.7-0.6,19.2c11.4,25.4,37.6,41.9,66.5,41.8c3.9,0,7.7-0.3,11.6-0.9
			c-0.4-11.1,1.8-22.3,8.8-31.8C380.5,128.5,269.1,134.4,269.1,134.4z"/>
	</g>
	
		<linearGradient id="SVGID_16_" gradientUnits="userSpaceOnUse" x1="261.2797" y1="638.974" x2="405.6054" y2="638.974" gradientTransform="matrix(1 0 0 -1 0 760)">
		<stop  offset="0" style="stop-color:#808080;stop-opacity:0.25"/>
		<stop  offset="0.54" style="stop-color:#808080;stop-opacity:0.12"/>
		<stop  offset="1" style="stop-color:#808080;stop-opacity:0.1"/>
	</linearGradient>
	<ellipse class="st18" cx="333.4" cy="121" rx="72.2" ry="68.4"/>
	<g class="st3">
		
			<linearGradient id="SVGID_17_" gradientUnits="userSpaceOnUse" x1="333.4323" y1="606.1554" x2="506.0045" y2="606.1554" gradientTransform="matrix(1 0 0 -1 -105 689.11)">
			<stop  offset="0" style="stop-color:#808080;stop-opacity:0.25"/>
			<stop  offset="0.54" style="stop-color:#808080;stop-opacity:0.12"/>
			<stop  offset="1" style="stop-color:#808080;stop-opacity:0.1"/>
		</linearGradient>
		<path class="st19" d="M379.2,92.3c8.7,1.1,19.8-1.6,21.6-9.9c2.1-10.4-12.5-17.1-14.8-27.5c-0.8-3.9,0.2-7.9-0.3-11.9
			c-1-7.9-7.7-14-14.6-18.7C349.2,9.9,322.7,3.2,296.2,5.5c-3.3,0.3-6.7,0.8-9.3,2.8c-2.9,2.2-4,5.9-6,8.9
			c-6.8,10.4-22,11.6-32.9,18.1c-12.8,7.6-19.1,22.4-19.6,36.7s3.7,28.2,7.9,41.9c3.6,11.6,7.4,23.6,15.3,33.1
			c7.9,9.5,21.1,16.2,33.5,13.3c-5.7-3.9-1.6-12.9,4.6-16.1c6.2-3.2,13.8-3.7,19.1-8.1c5.3-4.4,6.9-11.5,8.6-18.1
			c2.2-8.2,5.3-16.6,11.6-22.6C341.6,83.7,364,90.3,379.2,92.3z"/>
	</g>
	
		<linearGradient id="SVGID_18_" gradientUnits="userSpaceOnUse" x1="331.8724" y1="607.6486" x2="504.3918" y2="607.6486" gradientTransform="matrix(1 0 0 -1 -105 689.11)">
		<stop  offset="0" style="stop-color:#808080;stop-opacity:0.25"/>
		<stop  offset="0.54" style="stop-color:#808080;stop-opacity:0.12"/>
		<stop  offset="1" style="stop-color:#808080;stop-opacity:0.1"/>
	</linearGradient>
	<path class="st20" d="M377.6,90.8c8.7,1.1,19.8-1.6,21.6-9.9c2.1-10.4-12.5-17.1-14.8-27.5c-0.8-3.9,0.2-7.9-0.3-11.9
		c-1-7.9-7.7-14-14.6-18.7C347.6,8.4,321.1,1.7,294.7,4c-3.3,0.3-6.7,0.8-9.3,2.8c-2.9,2.2-4,5.9-6,8.9c-6.8,10.4-22,11.6-32.9,18.1
		c-12.8,7.6-19.1,22.4-19.6,36.7c-0.6,14.2,3.7,28.2,7.9,41.9c3.6,11.6,7.4,23.6,15.3,33.1s21.1,16.2,33.5,13.3
		c-5.7-3.9-1.6-12.9,4.6-16.1s13.8-3.7,19.1-8.1c5.3-4.4,6.9-11.5,8.6-18.1c2.2-8.2,5.3-16.6,11.6-22.6
		C340,82.2,362.4,88.8,377.6,90.8z"/>
	<g class="st3">
		
			<linearGradient id="SVGID_19_" gradientUnits="userSpaceOnUse" x1="403.1477" y1="509.4518" x2="499.9467" y2="509.4518" gradientTransform="matrix(1 0 0 -1 -105 689.11)">
			<stop  offset="0" style="stop-color:#808080;stop-opacity:0.25"/>
			<stop  offset="0.54" style="stop-color:#808080;stop-opacity:0.12"/>
			<stop  offset="1" style="stop-color:#808080;stop-opacity:0.1"/>
		</linearGradient>
		<path class="st21" d="M321,130.3c-1.1,7.1-3.4,19.3-7.8,27.1c-5.9,10.1-10.9,20.6-15,31.4l0,0c0,0,28.9,21.2,43.6,35.7
			c9.3,9.3,23.3,12.6,36,8.4c7.7-2.6,14.4-7.7,16.1-17.3c2.8-15.1-0.5-26.4-3.7-33.2c-3.1-6.4-3.1-13.8-0.1-20.3
			c1.1-2.3,2.4-4.1,3.8-4.5c0,0-28.2-5.9-29.8,1.5c-1.6,7.4-23.5,14.9-28.2,1.5l-1.3-29.5c-0.2-3.5-3.2-6.2-6.8-6.2l0,0
			C324.4,124.7,321.5,127.1,321,130.3z"/>
	</g>
	
		<linearGradient id="SVGID_20_" gradientUnits="userSpaceOnUse" x1="403.1477" y1="507.9558" x2="499.9467" y2="507.9558" gradientTransform="matrix(1 0 0 -1 -105 689.11)">
		<stop  offset="0" style="stop-color:#808080;stop-opacity:0.25"/>
		<stop  offset="0.54" style="stop-color:#808080;stop-opacity:0.12"/>
		<stop  offset="1" style="stop-color:#808080;stop-opacity:0.1"/>
	</linearGradient>
	<path class="st22" d="M321,131.8c-1.1,7.1-3.4,19.3-7.8,27.1c-5.9,10.1-10.9,20.6-15,31.4l0,0c0,0,28.9,21.2,43.6,35.7
		c9.3,9.3,23.3,12.6,36,8.4c7.7-2.6,14.4-7.7,16.1-17.3c2.8-15.1-0.5-26.4-3.7-33.2c-3.1-6.4-3.1-13.8-0.1-20.3
		c1.1-2.3,2.4-4.1,3.8-4.5c0,0-28.2-5.9-29.8,1.5c-1.6,7.4-23.5,14.9-28.2,1.5l-1.3-29.5c-0.2-3.5-3.2-6.2-6.8-6.2l0,0
		C324.4,126.2,321.5,128.6,321,131.8z"/>
</g>
<path class="st23" d="M272.2,561.8c0,0-109.9-39-125,15.9l42.2,104l4.5,66.5h91.9v-56.4c0,0-13.5-56.3,21.2-91L272.2,561.8z"/>
<path class="st24" d="M290.6,252.3c-4.7-1.5-10.3-2.8-14.1,0.2c-2.2,1.7-3.2,4.5-4.9,6.7c-5.7,7.3-17.2,5.9-26.3,8.5
	c-13.3,3.8-21.6,16.6-26.3,29.2c-20.9,55.4,2.4,118.8-15.8,175c-5.3,16.6-14.1,34.9-5.5,50.2c2.9,5.1,7.6,9.3,9,14.9
	c2,7.6-1.8,17.6,4.8,22.3c2,1.4,4.7,1.9,7.1,2.5c14.8,3.8,26.1,15,37.3,24.9c11.3,10,24.9,19.6,40.2,18.9c4.9-0.4,9.8-1.3,14.5-2.8
	l76-20.5c7.6-2.1,15.9-4.6,20.3-10.9c2.6-3.8,3.6-8.6,4.2-13.2c2.6-17.5,3.9-35.2,3.7-52.9c0-5.8-0.3-11.8-2.5-17.2
	c-2.6-6.3-7.6-11.3-11.3-17c-7.1-11.1-9.1-24.4-10.8-37.3c-2.8-20.5-5.6-41.5-1.7-61.8c1.7-8.7,4.5-17.2,6.4-25.9
	c3.1-14.1,3.6-28.7,1.5-43c-1.8-11.9-5.6-23.9-13.9-32.9c-5.5-5.9-12.9-9.9-21.1-11.1c-10.3-1.3-15.4,4.5-24.6,6.7
	C323.5,269,303.7,256.5,290.6,252.3z"/>
<path class="st25" d="M290.6,249.4c-4.7-1.5-10.3-2.8-14.1,0.2c-2.2,1.7-3.2,4.5-4.9,6.7c-5.7,7.3-17.2,5.9-26.3,8.5
	c-13.3,3.8-21.6,16.6-26.3,29.2c-20.9,55.4,2.4,118.8-15.8,175c-5.3,16.6-14.1,34.9-5.5,50.2c2.9,5.1,7.6,9.3,9,14.9
	c2,7.6-1.8,17.6,4.8,22.3c2,1.4,4.7,1.9,7.1,2.5c14.8,3.8,26.1,15,37.3,24.9c11.3,10,24.9,19.6,40.2,18.9c4.9-0.4,9.8-1.3,14.5-2.8
	l76-20.5c7.6-2.1,15.9-4.6,20.3-10.9c2.6-3.8,3.6-8.6,4.2-13.2c2.6-17.5,3.9-35.2,3.7-52.9c0-5.8-0.3-11.8-2.5-17.2
	c-2.6-6.3-7.6-11.3-11.3-17c-7.1-11.1-9.1-24.4-10.8-37.3c-2.8-20.5-5.6-41.5-1.7-61.8c1.7-8.7,4.5-17.2,6.4-25.9
	c3.1-14.1,3.6-28.7,1.5-43c-1.8-11.9-5.6-23.9-13.9-32.9c-5.4-5.9-12.9-9.9-21-11.1c-10.3-1.3-15.4,4.5-24.6,6.7
	C323.5,266.1,303.7,253.6,290.6,249.4z"/>
<path class="st26" d="M269.2,140c0,0,1.5,54.9-16.6,53.4s51.2,91,51.2,91l58.7-30.3c0,0-34.6-53.4-10.6-86.7
	C376.1,134.2,269.2,140,269.2,140z"/>
<path class="st24" d="M168.3,606.6c0,0-12,79.4-42.2,57.8c-30.1-21.7-25.6-57.8-25.6-57.8s58.7-153.1,55.7-176.2
	c-3-23.1,100.3-202.8,100.3-202.8l38.2,295.2C294.8,522.8,180.4,563.3,168.3,606.6z"/>
<path class="st27" d="M165.3,606.6c0,0-12,79.4-42.2,57.8c-30.1-21.7-25.6-57.8-25.6-57.8s58.7-153.1,55.7-176.2
	c-3-23.1,100.3-202.8,100.3-202.8l38.2,295.2C291.8,522.8,177.3,563.3,165.3,606.6z"/>
<path class="st27" d="M272.2,174.7c0,0-58.7,39-81.3,37.6l-17.6,4.6c-35.6,9.4-62.5,37.3-69.5,72l-0.3,1.4
	c-9,46.2-12,173.3-12,173.3s1.5,33.2,16.6,41.8l96.4,63.6c0,0-3-69.3,33.1-76.5c36.2-7.2-9-2.9-9-2.9L162.3,452
	c0,0,1.5-56.3,19.6-75.1c18.1-18.8,81.3-117,81.3-117l-18.1-60.7L272.2,174.7z"/>
<path class="st24" d="M337,212.3c0,0,37,9.4,62.9,13.9c8.2,1.4,15.2,6.6,18.8,13.8c7.8,15.7,19.7,43.9,17.7,67.5l22.6,85.2
	l64.8,75.1l-58.7,26l-66.2-70.8L453,557.5l-100.9,4.3c0,0-30.1-216.7-22.6-252.8L337,212.3z"/>
<path class="st27" d="M340,212.3c0,0,37,9.4,62.9,13.9c8.2,1.4,15.2,6.6,18.8,13.8c7.8,15.7,19.7,43.9,17.7,67.5l22.6,85.2
	l64.8,75.1l-58.7,26l-66.3-70.8L456,557.5l-100.9,4.3c0,0-30.1-216.7-22.6-252.8L340,212.3z"/>
<polygon class="st25" points="267.3,170.1 288,267.9 254.2,284.5 235.6,196.4 "/>
<polygon class="st25" points="324.2,275.1 340,212.3 360.3,249.1 349.8,279.4 "/>
<path class="st24" d="M381.4,293.9c0,0,0,98.2,13.5,105.4"/>
<path class="st24" d="M187.1,318.4c0,0-31.3,96.7-22.5,106.9"/>
<path class="st24" d="M181.1,451.3c0,0,60.3,37.8,68.5,38.4"/>
<path class="st24" d="M270.7,145.8c0,0,0.2,8.5-0.6,18.6c12.4,28.2,43.4,44.6,74.9,39.7c-0.4-10.8,1.8-21.7,8.5-30.9
	C377.6,140,270.7,145.8,270.7,145.8z"/>
<ellipse class="st26" cx="332.5" cy="132.8" rx="69.3" ry="66.4"/>
<path class="st24" d="M376.4,104.9c8.4,1.1,19.1-1.6,20.7-9.6c2-10.1-12-16.6-14.2-26.6c-0.8-3.8,0.2-7.7-0.3-11.5
	c-0.9-7.7-7.4-13.6-14.1-18.1c-20.9-14.1-46.4-20.6-71.8-18.4c-3.1,0.3-6.5,0.8-8.9,2.7c-2.8,2.2-3.8,5.7-5.7,8.6
	c-6.5,10.1-21.2,11.3-31.6,17.5c-12.3,7.3-18.3,21.8-18.9,35.6s3.6,27.4,7.6,40.7c3.5,11.3,7.1,22.9,14.7,32.2s20.2,15.7,32.1,12.9
	c-5.5-3.8-1.5-12.6,4.4-15.6c5.9-3.1,13.2-3.6,18.4-7.9c5.1-4.3,6.6-11.2,8.2-17.5c2.1-8,5.1-16.1,11.2-21.9
	C340.3,96.5,361.8,103,376.4,104.9z"/>
<path class="st28" d="M375,103.5c8.4,1.1,19.1-1.6,20.7-9.6c2-10.1-12-16.6-14.2-26.6c-0.8-3.8,0.2-7.7-0.3-11.5
	c-1-7.8-7.5-13.7-14.1-18.2c-20.9-14.1-46.4-20.6-71.8-18.4c-3.1,0.3-6.5,0.8-8.9,2.7c-2.8,2.2-3.8,5.7-5.7,8.6
	c-6.5,10.1-21.2,11.3-31.6,17.5c-12.3,7.3-18.3,21.8-18.9,35.6c-0.6,13.8,3.6,27.4,7.6,40.7c3.5,11.3,7.1,22.9,14.7,32.2
	c7.6,9.3,20.2,15.7,32.1,12.9c-5.5-3.8-1.5-12.6,4.4-15.6c5.9-3.1,13.2-3.6,18.4-7.9c5.1-4.3,6.6-11.2,8.2-17.5
	c2.1-8,5.1-16.1,11.2-21.9C338.8,95.1,360.3,101.6,375,103.5z"/>
<path class="st24" d="M320.5,141.8c-1,6.9-3.3,18.8-7.5,26.3c-5.6,9.8-10.4,19.9-14.4,30.4l0,0c0,0,27.8,20.6,41.8,34.7
	c8.8,9,22.4,12.2,34.5,8.1c7.3-2.5,13.8-7.5,15.5-16.8c2.6-14.6-0.5-25.7-3.5-32.2c-2.9-6.3-2.9-13.4-0.1-19.7
	c1-2.2,2.3-3.9,3.6-4.4c0,0-27.1-5.8-28.6,1.4s-22.6,14.4-27.1,1.4l-1.2-28.7c-0.1-3.4-3-6-6.5-6l0,0
	C323.7,136.4,320.9,138.7,320.5,141.8z"/>
<path class="st28" d="M320.5,143.2c-1,6.9-3.3,18.8-7.5,26.3c-5.6,9.8-10.4,19.9-14.4,30.4l0,0c0,0,27.8,20.6,41.8,34.7
	c8.8,9,22.4,12.2,34.5,8.1c7.3-2.5,13.8-7.5,15.5-16.8c2.6-14.6-0.5-25.7-3.5-32.2c-3-6.3-3-13.4-0.1-19.7c1-2.2,2.3-3.9,3.6-4.4
	c0,0-27.1-5.8-28.6,1.4s-22.6,14.5-27.1,1.5l-1.2-28.7c-0.1-3.4-3-6-6.5-6l0,0C323.7,137.9,321,140.2,320.5,143.2z"/>
<linearGradient id="SVGID_21_" gradientUnits="userSpaceOnUse" x1="768.9753" y1="126.3416" x2="768.9753" y2="643.689" gradientTransform="matrix(1 0 0 -1 -105 689.11)">
	<stop  offset="0" style="stop-color:#808080;stop-opacity:0.25"/>
	<stop  offset="0.54" style="stop-color:#808080;stop-opacity:0.12"/>
	<stop  offset="1" style="stop-color:#808080;stop-opacity:0.1"/>
</linearGradient>
<path class="st29" d="M858.8,554.2c0,0-27.2-26.1-37.2-60.9h2.3l-1.1-3h1.1l-3.5-9.7c10-9.5,17.4-18.6,18.7-23.8
	c2-8.8,4.1-56.2,5.3-89.2l1.1,0.3c2.6-4.3,3.2-9.8,3-14.8c0.1-5.6-0.6-11.1-2.2-16.5l-4.9-47.1c-1-8.8-5.6-16.8-12.9-22.1l-49.7-37
	c2.6-3.4,5.9-6.2,9.8-8.3c2.8-1.4,6.1-2.4,8.1-4.9c3.5-4.5,0.5-11.1,2.9-16.2c1.8-3.8,6.1-5.9,8.7-9.3c5.2-7,1.4-16.6-2.5-24.4
	L783,122.3c-6.3-12.4-12.6-25-21.4-35.9C734.7,52.8,683,36.1,640.8,50.7c-12,4.1-23.1,12.1-28.2,23.3c-1.8,3.9-2.9,8.2-5.4,11.6
	c-5.8,7.7-17.1,9.2-25.1,14.7c-10.3,7.1-14.1,20.6-12.7,32.7c1.4,12.1,7.2,23.3,12.9,34.2c6,11.4,12.2,23.2,22,31.8
	c4.6,4,10.2,7.8,11.7,13.6c1.3,5-1,10.1-0.5,15.3c0.2,2.2,0.9,4.2,1.9,6.1c-22.2,2.7-38,20.4-45.1,46.8c-0.4,1.6-0.6,2.5-0.6,2.5
	l-3.1,27.3c-0.1,1.2,0,2.3,0,3.4c-0.3,6.1,1.1,12.3,4,17.7v95.9l-95.2,57.8c-14.3,6.1-11.1,54.8,17.4,63.9
	c28.6,9.1,53.9-48.6,53.9-48.6c17.4-1.1,46.6-23.4,62.3-40.6c2.1,3.3,4.9,6.1,8.3,8.3c-11.3,24.5-33.8,75.2-30.2,85.5
	c2.2,6.2,57.9,6.8,118.1,5.6c1.5,0.8,3.2,1.5,4.8,2c6.4,2.1,12.7,0.7,18.5-2.6C795.8,557.4,858.8,554.2,858.8,554.2z M778.4,368.3
	c1.3-3.5,5.7-5.4,11.5-6.3v37L778.4,368.3z M772.9,238.3L772.9,238.3l0.2-0.3L772.9,238.3z"/>
<path class="st30" d="M629.9,322c0,0-3,102.6-6,115.6s-46.7,51.9-69.3,53.4c0,0-24.1,54.9-51.2,46.2c-27.1-8.7-30.1-54.9-16.6-60.7
	l90.4-54.9V311.9L629.9,322z"/>
<path class="st31" d="M627.7,447.7c0,0-39.2,80.9-34.6,93.9s256,0,256,0s-46.7-44.8-37.6-93.9H627.7z"/>
<path class="st30" d="M657.8,207.9c0,0,6,56.3-4.5,69.3s42.2,20.3,46.7,20.3c4.5,0,52.7-15.9,61.7-20.3c9-4.4,16.6-36.1,16.6-36.1
	s-45.2,8.7-58.7-41.8L657.8,207.9z"/>
<path class="st32" d="M642,63.4c-11.4,3.9-21.9,11.5-26.8,22.1c-1.7,3.7-2.7,7.7-5.2,11c-5.5,7.3-16.2,8.7-23.8,13.9
	c-9.8,6.8-13.4,19.5-12,31c1.4,11.5,6.9,22.1,12.3,32.5c5.7,10.9,11.6,22,20.9,30.2c4.4,3.8,9.7,7.4,11.1,12.9
	c1.2,4.7-0.9,9.7-0.5,14.6c1.1,12,16,17.6,28.5,18.9c5.4,0.6,11.6,0.6,15.5-3.1c2-1.9,2.9-4.5,4.2-6.9c8.5-16.5,29.3-23.3,46.5-15.1
	c6.6,3.1,12,8.2,15.4,14.5c2.9,5.4,4.6,12,10,15.2c8.2,5.1,19.1-0.9,25.1-8.2c6-7.3,10.4-16.5,19-20.9c2.6-1.4,5.8-2.3,7.7-4.7
	c3.3-4.2,0.5-10.6,2.7-15.4c1.7-3.6,5.8-5.6,8.2-8.9c5-6.6,1.3-15.8-2.3-23.1L777,131.4c-6-11.8-12-23.7-20.3-34.1
	C731.1,65.5,682,49.6,642,63.4z"/>
<path class="st24" d="M696.9,287.4c0,0,58.7,0,73.8-52l49.4,36.8c6.9,5.1,11.3,12.8,12.2,21.1L837,338c0,0,5.3,16.6-0.8,26.7
	c0,0-62.5-15.2-64,2.2l43.6,117c0,0-67.8,1.4-85.8-10.1c0,0-73.8,14.4-91.9-1.4S602,457.8,617,421.7c0,0-30.1-28.9-16.6-69.3
	s0.8,0.7,0.8,0.7s-29.3-13.7-27.7-39.8l3-26c0,0,0.2-0.9,0.6-2.4c9.2-34.2,33.9-53.2,68.5-41.1c10.1,3.5,20.5-0.5,20.5-0.5
	S654.8,290.3,696.9,287.4z"/>
<path class="st33" d="M696.9,284.5c0,0,58.7,0,73.8-52l49.4,36.8c6.9,5.1,11.3,12.8,12.2,21.1l4.7,44.7c0,0,5.3,16.6-0.8,26.7
	c0,0-62.5-15.2-64,2.2l43.6,117c0,0-67.8,1.4-85.8-10.1c0,0-73.8,14.4-91.9-1.4S602,454.9,617,418.8c0,0-30.1-28.9-16.6-69.3
	s0.8,0.7,0.8,0.7s-29.3-13.7-27.7-39.7l3-26c0,0,0.2-0.9,0.6-2.4c9.2-34.2,33.9-53.2,68.5-41.1c10.1,3.5,20.5-0.5,20.5-0.5
	S654.8,287.4,696.9,284.5z"/>
<path class="st30" d="M836.3,333.6c0,0-3,102.6-6,115.6c-3,13-46.7,52-69.3,53.4c0,0-24.1,54.9-51.2,46.2
	c-27.1-8.7-30.1-54.9-16.6-60.7l90.4-54.9V323.5L836.3,333.6z"/>
<path class="st24" d="M771.5,337.2c0,0,34.6,22.5,64.8,20.7c0,0,3-38.7-6-40.9C821.3,314.8,782,317,771.5,337.2z"/>
<path class="st33" d="M771.5,335.8c0,0,34.6,22.5,64.8,20.7c0,0,3-38.7-6-40.9C821.3,313.4,782,315.5,771.5,335.8z"/>
<path class="st24" d="M722.5,202.2l-61.7,8.7c0,0,1.4,13,1.7,28c24.5,9.9,52.7,5.5,72.7-11.3C730,221.4,725.5,213.2,722.5,202.2z"/>
<ellipse class="st30" cx="686.4" cy="174.7" rx="69.3" ry="66.4"/>
<path class="st24" d="M704.7,161.9c-3,1.1-6.1,1.5-9.3,1.3c-12.2-0.1-24.5-0.5-36.7-1.3c-9.3-0.6-19.2-1.6-26.3-7.3
	c-9.6-7.6-11.1-22-6.2-33s15.1-19.1,25.8-25.4c6-3.7,12.6-6.5,19.5-8.4c19.8-5.2,41.8,1.2,57.6,13.9s25.8,31,31.2,50.1
	c1.8,6.6,4.2,14.5,11,16.5c-4.5,7.2-15.6,8.4-23.5,4.8c-11.7-5.3-17.7-25.8-28.2-29C707.7,140.3,714.6,157.6,704.7,161.9z"/>
<path class="st32" d="M704.7,160.5c-3,1.1-6.1,1.5-9.3,1.3c-12.2-0.1-24.5-0.5-36.7-1.3c-9.3-0.6-19.2-1.6-26.3-7.3
	c-9.6-7.6-11.1-22-6.2-33S641.3,101,652,94.8c6-3.6,12.6-6.5,19.4-8.4c19.8-5.2,41.8,1.2,57.6,13.9s25.8,31,31.2,50.1
	c1.8,6.6,4.2,14.5,11,16.5c-4.5,7.2-15.6,8.4-23.5,4.8c-11.7-5.3-17.7-25.8-28.2-29C707.7,138.9,714.6,156.1,704.7,160.5z"/>
<path class="st24" d="M616.4,418.1c22.6-5.8,45.9-8.7,69.3-8.7"/>
<path class="st24" d="M771.5,340.1c0,0-22.6,15.9-16.6,24.6"/>
<g class="st1">
	
		<linearGradient id="SVGID_22_" gradientUnits="userSpaceOnUse" x1="556.8777" y1="5.3653" x2="556.8777" y2="262.4701" gradientTransform="matrix(1 0 0 -1 0 760)">
		<stop  offset="0" style="stop-color:#808080;stop-opacity:0.25"/>
		<stop  offset="0.54" style="stop-color:#808080;stop-opacity:0.12"/>
		<stop  offset="1" style="stop-color:#808080;stop-opacity:0.1"/>
	</linearGradient>
	<polygon class="st34" points="926.6,497.5 187.1,497.5 187.1,559.5 230.2,559.5 230.2,571.6 230.2,754.6 885.1,754.6 885.1,571.6 
		885.1,559.5 926.6,559.5 	"/>
</g>
<rect x="236.8" y="533.6" class="st25" width="641.6" height="221"/>
<rect x="236.8" y="545.2" class="st24" width="641.6" height="34.7"/>
<rect x="194.7" y="509.1" class="st25" width="724.4" height="59.2"/>
<path class="st23" d="M307.1,494.5h121.4c4.7,0,8.6,3.7,8.6,8.2v2.3c0,4.6-3.8,8.2-8.6,8.2H307.1c-4.7,0-8.6-3.7-8.6-8.2v-2.3
	C298.5,498.2,302.3,494.5,307.1,494.5z"/>
<g class="st1">
	
		<linearGradient id="SVGID_23_" gradientUnits="userSpaceOnUse" x1="555.0204" y1="246.4707" x2="555.0204" y2="474.8351" gradientTransform="matrix(1 0 0 -1 0 760)">
		<stop  offset="0" style="stop-color:#808080;stop-opacity:0.25"/>
		<stop  offset="0.54" style="stop-color:#808080;stop-opacity:0.12"/>
		<stop  offset="1" style="stop-color:#808080;stop-opacity:0.1"/>
	</linearGradient>
	<path class="st35" d="M420.1,285.2h269.8c20.6,0,37.3,16,37.3,35.8v156.8c0,19.8-16.7,35.8-37.3,35.8H420.1
		c-20.6,0-37.3-16-37.3-35.8V320.9C382.8,301.2,399.5,285.2,420.1,285.2z"/>
</g>
<path class="st36" d="M424.4,289.4h255.3c19.6,0,35.5,15.2,35.5,34v156.1c0,18.8-15.9,34-35.5,34H424.4c-19.6,0-35.5-15.2-35.5-34
	V323.4C389,304.6,404.8,289.4,424.4,289.4z"/>
<path class="st23" d="M429,289.4h255.3c19.6,0,35.5,15.2,35.5,34v156.1c0,18.8-15.9,34-35.5,34H429c-19.6,0-35.5-15.2-35.5-34V323.4
	C393.5,304.6,409.4,289.4,429,289.4z"/>
<ellipse class="st25" cx="571.8" cy="399.9" rx="10.5" ry="10.1"/>
<path class="st24" d="M140.4,538c0,0,8.9,12.5,35.3,16.4"/>
</svg>
