<?xml version="1.0" encoding="utf-8"?>
<!-- Generator: Adobe Illustrator 22.1.0, SVG Export Plug-In . SVG Version: 6.00 Build 0)  -->
<svg version="1.1" id="a952d8f6-5d4b-4520-b9b1-5f9a7d6efc47"
	 xmlns="http://www.w3.org/2000/svg" xmlns:xlink="http://www.w3.org/1999/xlink" x="0px" y="0px" viewBox="0 0 812.2 684"
	 style="enable-background:new 0 0 812.2 684;" xml:space="preserve">
<style type="text/css">
	.st0{fill:#36334A;}
	.st1{fill:#916D6D;}
	.st2{fill:#3F3D56;}
	.st3{fill:#A37878;}
	.st4{fill:#D7E5F2;}
	.st5{opacity:0.1;enable-background:new    ;}
	.st6{fill:#696880;}
</style>
<title>personal notes</title>
<ellipse class="st0" cx="375" cy="461.1" rx="86.5" ry="98.1"/>
<path class="st1" d="M483.4,136.5c-20.8,9.1-43.5,13-66.1,11.4c5.8-4.1,9.5-10.8,11-17.8s0.9-14.3-0.6-21.2c-0.3-0.8-0.3-1.7,0-2.5
	c0.6-0.8,1.6-1.3,2.6-1.3c8.8-1.2,33.9-6.5,40.5,1c3.2,3.6,2,10.5,3.1,14.8C474.6,122.8,480.7,137.7,483.4,136.5z"/>
<path class="st2" d="M413,283.6l-130,4c0,0-115,112-20,146c0,0,117,19,145-3C408,430.6,443,292.6,413,283.6z M407,320.6l-139,9
	c0,0,10-34,50-34s85-9,89,12S407,320.6,407,320.6z"/>
<path class="st3" d="M310.5,265.6c-6.5-1-13.5-1.6-19.2,1.7c-1.9,1.2-3.6,2.6-5.2,4.1c-2.3,2.1-4.6,4.2-6.8,6.3
	c-1.6,1.6-3.4,3.3-3.8,5.5c-0.9,4.6,4.4,8.3,9.1,8.1s8.8-2.7,13.2-4.3c8.9-3.1,41.5,2.2,43.3-7.3
	C343.3,267.7,317.7,266.8,310.5,265.6z"/>
<path class="st4" d="M371.3,258c-8.5,4.3-17.7,6.9-27.2,7.7c-1.5,0-2.9,0.3-4.3,0.9c-0.8,0.5-1.5,1.3-1.8,2.2
	c-3.3,7-5.4,14.5-6.1,22.2c-0.2,0.8,0.1,1.5,0.7,2c0.9,0.5,1.9,0.7,2.9,0.7c15.6,1,31.2,1.5,46.8,1.6c0.7,0.1,1.4,0,2-0.3
	c0.5-0.2,0.8-0.7,0.9-1.2c3.7-9.1,5.4-18.9,5.1-28.8C390,253.4,386.6,249.8,371.3,258z"/>
<path class="st5" d="M371.3,258c-8.5,4.3-17.7,6.9-27.2,7.7c-1.5,0-2.9,0.3-4.3,0.9c-0.8,0.5-1.5,1.3-1.8,2.2
	c-3.3,7-5.4,14.5-6.1,22.2c-0.2,0.8,0.1,1.5,0.7,2c0.9,0.5,1.9,0.7,2.9,0.7c15.6,1,31.2,1.5,46.8,1.6c0.7,0.1,1.4,0,2-0.3
	c0.5-0.2,0.8-0.7,0.9-1.2c3.7-9.1,5.4-18.9,5.1-28.8C390,253.4,386.6,249.8,371.3,258z"/>
<path class="st0" d="M546,362.6l-171-6l40-169c0,0,160-12,156,29S546,362.6,546,362.6z"/>
<path class="st0" d="M380.9,443.3c0,0-102.9,18.2-139.9-35.8s140-25,140-25l15,41L380.9,443.3z"/>
<circle class="st0" cx="350" cy="625.6" r="47"/>
<ellipse class="st2" cx="354.5" cy="625.6" rx="29.5" ry="34"/>
<path class="st2" d="M607,182.6c0,0-39-22-41,30l-33,242h14l38-259c0,0,19,3,22,3S607,182.6,607,182.6z"/>
<path class="st0" d="M645.8,209.3L645.8,209.3c-1.4,5-6.5,7.9-11.5,6.5c-0.4-0.1-0.8-0.2-1.2-0.4L587.9,196l8.2-18.1l44.6,20.3
	C644.9,200.2,647.1,204.8,645.8,209.3z"/>
<path class="st2" d="M371,437.6c0,0-72-8-92,61s-18,122-35,118s-53-18-53-18l3,21c0,0,63,32,73-2s16-159,73-156s67-3,67-3L371,437.6
	z"/>
<path class="st2" d="M234,404.6c0,0-56,7-78,48s-33,115-33,115h21c0,0,12-147,75-139L234,404.6z"/>
<path class="st0" d="M196,633.6l-89-55c0,0-5-20,52-28c0,0,107.8,37.7,97.4,51.8C246,616.6,211,638.6,196,633.6z"/>
<polygon class="st2" points="334,454.6 334,571.6 347,571.6 347,452.6 "/>
<path class="st0" d="M353,526.6c0,0,25,98,9,112c0,0-21-62-37-54l5-58H353z"/>
<circle class="st3" cx="450" cy="79.6" r="39"/>
<path class="st4" d="M442.6,138.7c15.9,2.7,29.7-15.8,45.6-13.2c3.5,0.7,6.8,2,9.8,3.9c23.7,13.4,40.7,36.2,46.8,62.7
	c1.8,8,2.5,16.7-0.9,24.2c-1.8,4-4.6,7.4-7.5,10.7c-10.6,12.3-22.2,24.6-37.3,30.6c-1.5,5.1-0.1,10.7,1.7,15.7
	c7.4,21-4.4,43.5-5,65.8c-0.1,3.8,0,8-2.4,10.9c-2.6,3.3-7.3,3.9-11.6,4.1c-38.6,2.2-77.2-3.7-115.4-9.7c-1-0.1-2-0.4-2.8-0.9
	c-1.3-1-1.4-2.8-1.7-4.4c-1.4-8.4,6-15.2,2.5-22.9c-6.1-13.3,7.2-27.9,11-42s5.3-16.6,8-31c1-5.4-1.9-21.6-1-27
	c2.9-17.6,0.7-37.7,10-53c5.6-9.2,4.1-16.3,14.1-20.3C417.1,138.6,431.3,140,442.6,138.7z"/>
<path class="st6" d="M266.5,371.3c-11.6,2.2-24,4.4-33,12.2c-5.5,4.7-9.2,11.2-12.7,17.5l-36.5,64.3c-11.1,19.6-22.2,39.2-32.3,59.4
	c-0.9,1.5-1.4,3.1-1.5,4.8c0,2.4,1.7,4.5,3.3,6.2c11.7,12.1,28.3,18,45,15.8c2.5-13,14.8-21.6,20.9-33.3c3.3-6.5,4.7-13.7,6.8-20.7
	c8-25.9,27-46.7,45.4-66.5c8.7-9.4,17.6-18.9,28.9-25.1c13.2-7.2,28.5-9.2,43.2-12.2s30-7.5,40.4-18.4c9-9.4,13.2-22.4,11.5-35.3
	c-9.4-0.7-19.9-1.9-29,1.1c-10.6,3.5-20.8,8.3-31.4,11.9C313,360.6,289.9,366.7,266.5,371.3z"/>
<path class="st5" d="M266.5,371.3c-11.6,2.2-24,4.4-33,12.2c-5.5,4.7-9.2,11.2-12.7,17.5l-36.5,64.3c-11.1,19.6-22.2,39.2-32.3,59.4
	c-0.9,1.5-1.4,3.1-1.5,4.8c0,2.4,1.7,4.5,3.3,6.2c11.7,12.1,28.3,18,45,15.8c2.5-13,14.8-21.6,20.9-33.3c3.3-6.5,4.7-13.7,6.8-20.7
	c8-25.9,27-46.7,45.4-66.5c8.7-9.4,17.6-18.9,28.9-25.1c13.2-7.2,28.5-9.2,43.2-12.2s30-7.5,40.4-18.4c9-9.4,13.2-22.4,11.5-35.3
	c-9.4-0.7-19.9-1.9-29,1.1c-10.6,3.5-20.8,8.3-31.4,11.9C313,360.6,289.9,366.7,266.5,371.3z"/>
<path class="st2" d="M109.3,575c-1.3,0.9-2.3,2.2-2.9,3.7c-1.3,4.5,4.3,7.7,8.8,9c10.1,2.9,21,5.8,31.1,2.8
	c6.2-1.8,11.6-5.8,17.8-7.8c9.2-2.9,19.1-1.3,28.5,0.4c2.1-11.9,0.7-24.1-4.1-35.2c-3-7-15.2-10.4-22.4-10.7
	c-7.9-0.3-10.7,5.5-15.2,10.9C139.8,561.2,122.1,564.2,109.3,575z"/>
<path class="st6" d="M273.9,390.4c-5.6,2.2-11.3,4.5-15.7,8.7c-4.6,4.4-7.3,10.3-9.8,16.2c-7.3,17.3-13.5,35.1-18.6,53.1
	c-2.6,9.1-4.9,18.4-8.3,27.2c-6.9,17.6-18.7,34.5-17.6,53.4c0,2.3,0.6,4.6,1.8,6.5c1.6,2.3,4.2,3.5,6.8,4.6l13.3,5.8
	c7.1,3.1,15.8,6.1,22.2,1.6c4.3-3,6-8.4,7.3-13.4c4.6-18.2,7.5-37.1,15.8-54c9.4-19.1,25.3-34.4,33.7-54c1.2-2.8,2.3-5.7,4.7-7.6
	c1.9-1.6,4.4-2.2,6.9-2.7c49.9-11.4,101-17.6,150.6-30.6c7-1.8,14.4-4,19.4-9.3c7-7.3,7.6-18.4,7.8-28.5c0.1-6.3,0.1-13.2-3.7-18.2
	c-4.3-5.7-12.1-7.2-19.2-7.9c-27.2-2.9-52.3,1.6-79.1,4.9c-24.5,3-49.2,16.9-72.1,25.9C304.5,378.2,289.2,384.3,273.9,390.4z"/>
<path class="st2" d="M212.4,571.2c-3.7,8.9-7.8,18.2-15.4,24.1c-3.2,2.5-7.3,5-7.4,9c-0.1,4.3,4.3,7.1,8.3,8.5
	c10.2,3.7,21.8,4.5,31.8,0.2c6.8-2.9,12.4-8,17.9-13c1.7-1.5,3.4-3.1,4.1-5.2c0.5-1.8,0.7-3.6,0.5-5.5c-0.7-11.1-2.6-22.1-5.9-32.7
	c-0.3-0.8-21.8-3.5-23.7-3C216.6,555.1,214.7,565.7,212.4,571.2z"/>
<path class="st2" d="M547,313.6l-130,4c0,0-115,112-20,146c0,0,117,19,145-3C542,460.6,577,322.6,547,313.6z M541,350.6l-139,9
	c0,0,10-34,50-34s85-9,89,12S541,350.6,541,350.6z"/>
<ellipse class="st0" cx="517.5" cy="524.6" rx="130.5" ry="148"/>
<ellipse class="st2" cx="523.5" cy="524.6" rx="98.5" ry="110"/>
<path class="st0" d="M549,523.1c0-1.9-0.2-3.8-0.6-5.7l73.6-36.8l-5-11l-74.3,36.2c-0.7-0.8-1.6-1.5-2.5-2.1l0.1,0L562,395.6
	l-19.2-0.4L530,501.6l1.2,0.3c-1,0.2-2,0.5-2.9,1l-64.3-66l-9.1,12.7l66,60.8c-1.7,3.2-2.7,6.7-2.9,10.2l-93.1,38l-2,16l97.1-40.8
	c0.9,2.2,2.2,4.3,3.8,6.1L494,641.6h11L530,544c1.1,0.4,2.3,0.5,3.4,0.6c2.3,0,4.5-0.7,6.4-1.9l52.1,68.9l16-11l-61.1-66.7
	C548.3,530.4,549,526.8,549,523.1z"/>
<path class="st0" d="M404.7,54.9c1.8-4.4,7.4-6.3,9.3-10.6c2-4.7-1.1-10.7,1.6-15c2.7-4.4,9.1-3.9,14.2-3c6,1,12.4,1.7,18-0.7
	c2.5-1.1,4.7-2.7,7.1-3.9c3.8-1.9,8.1-2.9,12.4-2.7c1,0,1.9,0.2,2.8,0.7c0.8,0.6,1.4,1.4,1.8,2.3c1.8,3.8,2,8.5,5.2,11.3
	c1.5,1.3,3.5,1.9,5.3,2.8c8.7,4.2,13.9,13.4,12.9,23c-0.4,2.2-0.7,4.4-0.8,6.6c0.1,4.9,3.3,9.7,1.7,14.3c-1.2,3.4-4.7,5.4-8.2,6.5
	c-1,0.4-2.1,0.5-3.1,0.2c-1.8-0.7-2.1-3-2.7-4.8c-1.6-4.9-6.3-8.2-11.5-8.1c-4,0.2-8.1,2.4-11.9,1.1c-1.9-0.7-3.3-2.1-4.8-3.4
	c-3.4-3-7.5-5.5-12-6.1s-9.5,0.9-12.2,4.6c-1.1,1.5-1.7,3.3-2.8,4.8C417.8,88.2,400.9,64.4,404.7,54.9z"/>
<path class="st3" d="M425.4,292.5c-3.5-0.5-6.9,0.8-9.3,3.5c-8.8,8-18,17-19.6,28.7c-0.2,1.1-0.1,2.2,0.4,3.2
	c0.8,1.4,2.7,1.7,4.3,1.7c8.3,0.1,16.2-3.4,21.7-9.6c1.5-1.7,2.9-3.7,4.9-4.6c1.9-0.7,3.9-1,5.9-0.7c5.5,0.2,18,3,22.8,0.3
	c5-2.9,3.6-11.8,1.3-16.2C452.3,288.5,434.9,292.4,425.4,292.5z"/>
<path class="st4" d="M547.6,206.1c3.4,10.8,1.4,23,6.2,33.3c3.2,6.8,9.1,12.3,11,19.6c1.7,6.9-0.6,14.3-4.7,20.1
	s-9.8,10.3-15.5,14.5c-6.3,4.6-12.7,9.1-20.1,11.7c-7.3,2.5-15.2,2.9-23,3.2l-51.4,2.4l-9.5-28.4l33.5-13.1
	c3.4-1.3,6.8-2.6,10.4-2.9c6.2-0.5,13.8,1.8,17.7-3c1.3-1.8,2.1-3.8,2.3-5.9c3.2-16.7,0.4-34.3,5.4-50.5c2.5-8,9.6-24.1,19.3-25.6
	C539.6,180,545.2,198.6,547.6,206.1z"/>
</svg>
